ISO-10303-21;
HEADER;
/* Generated by software containing ST-Developer
 * from STEP Tools, Inc. (www.steptools.com) 
 */

FILE_DESCRIPTION(
/* description */ (''),
/* implementation_level */ '2;1');

FILE_NAME(
/* name */ 'finger_left.step',
/* time_stamp */ '2026-04-03T17:40:38+09:00',
/* author */ (''),
/* organization */ (''),
/* preprocessor_version */ 'ST-DEVELOPER v20.1',
/* originating_system */ 'Autodesk Translation Framework v14.24.0.0',
/* authorisation */ '');

FILE_SCHEMA (('AUTOMOTIVE_DESIGN { 1 0 10303 214 3 1 1 }'));
ENDSEC;

DATA;
#10=MECHANICAL_DESIGN_GEOMETRIC_PRESENTATION_REPRESENTATION('',(#35,#36),
#1900);
#11=ITEM_DEFINED_TRANSFORMATION($,$,#1141,#1245);
#12=ITEM_DEFINED_TRANSFORMATION($,$,#1235,#1246);
#13=ITEM_DEFINED_TRANSFORMATION($,$,#1235,#1247);
#14=ITEM_DEFINED_TRANSFORMATION($,$,#1235,#1248);
#15=ITEM_DEFINED_TRANSFORMATION($,$,#1235,#1249);
#16=(
REPRESENTATION_RELATIONSHIP($,$,#1917,#1916)
REPRESENTATION_RELATIONSHIP_WITH_TRANSFORMATION(#11)
SHAPE_REPRESENTATION_RELATIONSHIP()
);
#17=(
REPRESENTATION_RELATIONSHIP($,$,#1918,#1916)
REPRESENTATION_RELATIONSHIP_WITH_TRANSFORMATION(#12)
SHAPE_REPRESENTATION_RELATIONSHIP()
);
#18=(
REPRESENTATION_RELATIONSHIP($,$,#1918,#1916)
REPRESENTATION_RELATIONSHIP_WITH_TRANSFORMATION(#13)
SHAPE_REPRESENTATION_RELATIONSHIP()
);
#19=(
REPRESENTATION_RELATIONSHIP($,$,#1918,#1916)
REPRESENTATION_RELATIONSHIP_WITH_TRANSFORMATION(#14)
SHAPE_REPRESENTATION_RELATIONSHIP()
);
#20=(
REPRESENTATION_RELATIONSHIP($,$,#1918,#1916)
REPRESENTATION_RELATIONSHIP_WITH_TRANSFORMATION(#15)
SHAPE_REPRESENTATION_RELATIONSHIP()
);
#21=CONTEXT_DEPENDENT_SHAPE_REPRESENTATION(#16,#1911);
#22=CONTEXT_DEPENDENT_SHAPE_REPRESENTATION(#17,#1912);
#23=CONTEXT_DEPENDENT_SHAPE_REPRESENTATION(#18,#1913);
#24=CONTEXT_DEPENDENT_SHAPE_REPRESENTATION(#19,#1914);
#25=CONTEXT_DEPENDENT_SHAPE_REPRESENTATION(#20,#1915);
#26=NEXT_ASSEMBLY_USAGE_OCCURRENCE(
'\X\B8\X\B4\X\BC\X\FE \X\B8\X\B4\X\BC\X\FE \X\B8\X\B4\X\BC\X\FE PGE-50
\X\D0\X\C2\X\BB\X\F9\X\D7\X\F90.5\X\C4\X\A3\X\CA\X\FD^\X\D7\X\F3\X\BB\X\F9
\X\D7\X\F9_PGEA-100-40-W-\X\D0\X\E9\X\C4\X\E2\X\D7\X\E9\X\BC\X\FE:1',
'\X\B8\X\B4\X\BC\X\FE \X\B8\X\B4\X\BC\X\FE \X\B8\X\B4\X\BC\X\FE PGE-50
\X\D0\X\C2\X\BB\X\F9\X\D7\X\F90.5\X\C4\X\A3\X\CA\X\FD^\X\D7\X\F3\X\BB\X\F9
\X\D7\X\F9_PGEA-100-40-W-\X\D0\X\E9\X\C4\X\E2\X\D7\X\E9\X\BC\X\FE:1',
'\X\B8\X\B4\X\BC\X\FE \X\B8\X\B4\X\BC\X\FE \X\B8\X\B4\X\BC\X\FE PGE-50
\X\D0\X\C2\X\BB\X\F9\X\D7\X\F90.5\X\C4\X\A3\X\CA\X\FD^\X\D7\X\F3\X\BB\X\F9
\X\D7\X\F9_PGEA-100-40-W-\X\D0\X\E9\X\C4\X\E2\X\D7\X\E9\X\BC\X\FE:1',#1920,
#1921,
'\X\B8\X\B4\X\BC\X\FE \X\B8\X\B4\X\BC\X\FE \X\B8\X\B4\X\BC\X\FE PGE-50
\X\D0\X\C2\X\BB\X\F9\X\D7\X\F90.5\X\C4\X\A3\X\CA\X\FD^\X\D7\X\F3\X\BB\X\F9
\X\D7\X\F9_PGEA-100-40-W-\X\D0\X\E9\X\C4\X\E2\X\D7\X\E9\X\BC\X\FE:1');
#27=NEXT_ASSEMBLY_USAGE_OCCURRENCE(
'\X\B8\X\B4\X\BC\X\FE \X\B8\X\B4\X\BC\X\FE \X\B8\X\B4\X\BC\X\FE M2-2-5
\X\CD\X\B7-0.5\X\BA\X\F1^\X\D7\X\F3\X\BB\X\F9\X\D7\X\F9_PGEA-100-40-W-
\X\D0\X\E9\X\C4\X\E2\X\D7\X\E9\X\BC\X\FE:1',
'\X\B8\X\B4\X\BC\X\FE \X\B8\X\B4\X\BC\X\FE \X\B8\X\B4\X\BC\X\FE M2-2-5
\X\CD\X\B7-0.5\X\BA\X\F1^\X\D7\X\F3\X\BB\X\F9\X\D7\X\F9_PGEA-100-40-W-
\X\D0\X\E9\X\C4\X\E2\X\D7\X\E9\X\BC\X\FE:1',
'\X\B8\X\B4\X\BC\X\FE \X\B8\X\B4\X\BC\X\FE \X\B8\X\B4\X\BC\X\FE M2-2-5
\X\CD\X\B7-0.5\X\BA\X\F1^\X\D7\X\F3\X\BB\X\F9\X\D7\X\F9_PGEA-100-40-W-
\X\D0\X\E9\X\C4\X\E2\X\D7\X\E9\X\BC\X\FE:1',#1920,#1922,
'\X\B8\X\B4\X\BC\X\FE \X\B8\X\B4\X\BC\X\FE \X\B8\X\B4\X\BC\X\FE M2-2-5
\X\CD\X\B7-0.5\X\BA\X\F1^\X\D7\X\F3\X\BB\X\F9\X\D7\X\F9_PGEA-100-40-W-
\X\D0\X\E9\X\C4\X\E2\X\D7\X\E9\X\BC\X\FE:1');
#28=NEXT_ASSEMBLY_USAGE_OCCURRENCE(
'\X\B8\X\B4\X\BC\X\FE \X\B8\X\B4\X\BC\X\FE \X\B8\X\B4\X\BC\X\FE M2-2-5
\X\CD\X\B7-0.5\X\BA\X\F1^\X\D7\X\F3\X\BB\X\F9\X\D7\X\F9_PGEA-100-40-W-
\X\D0\X\E9\X\C4\X\E2\X\D7\X\E9\X\BC\X\FE:2',
'\X\B8\X\B4\X\BC\X\FE \X\B8\X\B4\X\BC\X\FE \X\B8\X\B4\X\BC\X\FE M2-2-5
\X\CD\X\B7-0.5\X\BA\X\F1^\X\D7\X\F3\X\BB\X\F9\X\D7\X\F9_PGEA-100-40-W-
\X\D0\X\E9\X\C4\X\E2\X\D7\X\E9\X\BC\X\FE:2',
'\X\B8\X\B4\X\BC\X\FE \X\B8\X\B4\X\BC\X\FE \X\B8\X\B4\X\BC\X\FE M2-2-5
\X\CD\X\B7-0.5\X\BA\X\F1^\X\D7\X\F3\X\BB\X\F9\X\D7\X\F9_PGEA-100-40-W-
\X\D0\X\E9\X\C4\X\E2\X\D7\X\E9\X\BC\X\FE:2',#1920,#1922,
'\X\B8\X\B4\X\BC\X\FE \X\B8\X\B4\X\BC\X\FE \X\B8\X\B4\X\BC\X\FE M2-2-5
\X\CD\X\B7-0.5\X\BA\X\F1^\X\D7\X\F3\X\BB\X\F9\X\D7\X\F9_PGEA-100-40-W-
\X\D0\X\E9\X\C4\X\E2\X\D7\X\E9\X\BC\X\FE:2');
#29=NEXT_ASSEMBLY_USAGE_OCCURRENCE(
'\X\B8\X\B4\X\BC\X\FE \X\B8\X\B4\X\BC\X\FE \X\B8\X\B4\X\BC\X\FE M2-2-5
\X\CD\X\B7-0.5\X\BA\X\F1^\X\D7\X\F3\X\BB\X\F9\X\D7\X\F9_PGEA-100-40-W-
\X\D0\X\E9\X\C4\X\E2\X\D7\X\E9\X\BC\X\FE:3',
'\X\B8\X\B4\X\BC\X\FE \X\B8\X\B4\X\BC\X\FE \X\B8\X\B4\X\BC\X\FE M2-2-5
\X\CD\X\B7-0.5\X\BA\X\F1^\X\D7\X\F3\X\BB\X\F9\X\D7\X\F9_PGEA-100-40-W-
\X\D0\X\E9\X\C4\X\E2\X\D7\X\E9\X\BC\X\FE:3',
'\X\B8\X\B4\X\BC\X\FE \X\B8\X\B4\X\BC\X\FE \X\B8\X\B4\X\BC\X\FE M2-2-5
\X\CD\X\B7-0.5\X\BA\X\F1^\X\D7\X\F3\X\BB\X\F9\X\D7\X\F9_PGEA-100-40-W-
\X\D0\X\E9\X\C4\X\E2\X\D7\X\E9\X\BC\X\FE:3',#1920,#1922,
'\X\B8\X\B4\X\BC\X\FE \X\B8\X\B4\X\BC\X\FE \X\B8\X\B4\X\BC\X\FE M2-2-5
\X\CD\X\B7-0.5\X\BA\X\F1^\X\D7\X\F3\X\BB\X\F9\X\D7\X\F9_PGEA-100-40-W-
\X\D0\X\E9\X\C4\X\E2\X\D7\X\E9\X\BC\X\FE:3');
#30=NEXT_ASSEMBLY_USAGE_OCCURRENCE(
'\X\B8\X\B4\X\BC\X\FE \X\B8\X\B4\X\BC\X\FE \X\B8\X\B4\X\BC\X\FE M2-2-5
\X\CD\X\B7-0.5\X\BA\X\F1^\X\D7\X\F3\X\BB\X\F9\X\D7\X\F9_PGEA-100-40-W-
\X\D0\X\E9\X\C4\X\E2\X\D7\X\E9\X\BC\X\FE:4',
'\X\B8\X\B4\X\BC\X\FE \X\B8\X\B4\X\BC\X\FE \X\B8\X\B4\X\BC\X\FE M2-2-5
\X\CD\X\B7-0.5\X\BA\X\F1^\X\D7\X\F3\X\BB\X\F9\X\D7\X\F9_PGEA-100-40-W-
\X\D0\X\E9\X\C4\X\E2\X\D7\X\E9\X\BC\X\FE:4',
'\X\B8\X\B4\X\BC\X\FE \X\B8\X\B4\X\BC\X\FE \X\B8\X\B4\X\BC\X\FE M2-2-5
\X\CD\X\B7-0.5\X\BA\X\F1^\X\D7\X\F3\X\BB\X\F9\X\D7\X\F9_PGEA-100-40-W-
\X\D0\X\E9\X\C4\X\E2\X\D7\X\E9\X\BC\X\FE:4',#1920,#1922,
'\X\B8\X\B4\X\BC\X\FE \X\B8\X\B4\X\BC\X\FE \X\B8\X\B4\X\BC\X\FE M2-2-5
\X\CD\X\B7-0.5\X\BA\X\F1^\X\D7\X\F3\X\BB\X\F9\X\D7\X\F9_PGEA-100-40-W-
\X\D0\X\E9\X\C4\X\E2\X\D7\X\E9\X\BC\X\FE:4');
#31=SHAPE_REPRESENTATION_RELATIONSHIP('SRR','None',#1917,#33);
#32=SHAPE_REPRESENTATION_RELATIONSHIP('SRR','None',#1918,#34);
#33=ADVANCED_BREP_SHAPE_REPRESENTATION('',(#37),#1898);
#34=ADVANCED_BREP_SHAPE_REPRESENTATION('',(#38),#1899);
#35=STYLED_ITEM('',(#1935),#37);
#36=STYLED_ITEM('',(#1935),#38);
#37=MANIFOLD_SOLID_BREP('\X2\BCF8CCB4\X0\1',#1115);
#38=MANIFOLD_SOLID_BREP('\X2\BCF8CCB4\X0\1',#1116);
#39=CONICAL_SURFACE('',#1174,2.025,0.785398163397444);
#40=CONICAL_SURFACE('',#1178,1.5,0.785398163397448);
#41=CONICAL_SURFACE('',#1180,1.025,0.785398163397443);
#42=CONICAL_SURFACE('',#1182,1.025,0.785398163397443);
#43=CONICAL_SURFACE('',#1184,1.025,0.785398163397445);
#44=CONICAL_SURFACE('',#1186,1.025,0.785398163397445);
#45=CONICAL_SURFACE('',#1226,1.49999999999999,0.785398163397448);
#46=CONICAL_SURFACE('',#1229,1.5,0.78539816339744);
#47=FACE_BOUND('',#185,.T.);
#48=FACE_BOUND('',#186,.T.);
#49=FACE_BOUND('',#187,.T.);
#50=FACE_BOUND('',#207,.T.);
#51=FACE_BOUND('',#208,.T.);
#52=FACE_BOUND('',#221,.T.);
#53=FACE_BOUND('',#222,.T.);
#54=FACE_BOUND('',#248,.T.);
#55=PLANE('',#1145);
#56=PLANE('',#1149);
#57=PLANE('',#1156);
#58=PLANE('',#1157);
#59=PLANE('',#1158);
#60=PLANE('',#1159);
#61=PLANE('',#1160);
#62=PLANE('',#1161);
#63=PLANE('',#1190);
#64=PLANE('',#1191);
#65=PLANE('',#1192);
#66=PLANE('',#1193);
#67=PLANE('',#1194);
#68=PLANE('',#1195);
#69=PLANE('',#1196);
#70=PLANE('',#1197);
#71=PLANE('',#1198);
#72=PLANE('',#1199);
#73=PLANE('',#1200);
#74=PLANE('',#1201);
#75=PLANE('',#1205);
#76=PLANE('',#1209);
#77=PLANE('',#1210);
#78=PLANE('',#1211);
#79=PLANE('',#1212);
#80=PLANE('',#1213);
#81=PLANE('',#1214);
#82=PLANE('',#1215);
#83=PLANE('',#1216);
#84=PLANE('',#1217);
#85=PLANE('',#1218);
#86=PLANE('',#1219);
#87=PLANE('',#1220);
#88=PLANE('',#1221);
#89=PLANE('',#1222);
#90=PLANE('',#1223);
#91=PLANE('',#1224);
#92=PLANE('',#1225);
#93=PLANE('',#1227);
#94=PLANE('',#1228);
#95=PLANE('',#1230);
#96=PLANE('',#1231);
#97=PLANE('',#1232);
#98=PLANE('',#1233);
#99=PLANE('',#1234);
#100=PLANE('',#1242);
#101=PLANE('',#1243);
#102=PLANE('',#1244);
#103=FACE_OUTER_BOUND('',#173,.T.);
#104=FACE_OUTER_BOUND('',#174,.T.);
#105=FACE_OUTER_BOUND('',#175,.T.);
#106=FACE_OUTER_BOUND('',#176,.T.);
#107=FACE_OUTER_BOUND('',#177,.T.);
#108=FACE_OUTER_BOUND('',#178,.T.);
#109=FACE_OUTER_BOUND('',#179,.T.);
#110=FACE_OUTER_BOUND('',#180,.T.);
#111=FACE_OUTER_BOUND('',#181,.T.);
#112=FACE_OUTER_BOUND('',#182,.T.);
#113=FACE_OUTER_BOUND('',#183,.T.);
#114=FACE_OUTER_BOUND('',#184,.T.);
#115=FACE_OUTER_BOUND('',#188,.T.);
#116=FACE_OUTER_BOUND('',#189,.T.);
#117=FACE_OUTER_BOUND('',#190,.T.);
#118=FACE_OUTER_BOUND('',#191,.T.);
#119=FACE_OUTER_BOUND('',#192,.T.);
#120=FACE_OUTER_BOUND('',#193,.T.);
#121=FACE_OUTER_BOUND('',#194,.T.);
#122=FACE_OUTER_BOUND('',#195,.T.);
#123=FACE_OUTER_BOUND('',#196,.T.);
#124=FACE_OUTER_BOUND('',#197,.T.);
#125=FACE_OUTER_BOUND('',#198,.T.);
#126=FACE_OUTER_BOUND('',#199,.T.);
#127=FACE_OUTER_BOUND('',#200,.T.);
#128=FACE_OUTER_BOUND('',#201,.T.);
#129=FACE_OUTER_BOUND('',#202,.T.);
#130=FACE_OUTER_BOUND('',#203,.T.);
#131=FACE_OUTER_BOUND('',#204,.T.);
#132=FACE_OUTER_BOUND('',#205,.T.);
#133=FACE_OUTER_BOUND('',#206,.T.);
#134=FACE_OUTER_BOUND('',#209,.T.);
#135=FACE_OUTER_BOUND('',#210,.T.);
#136=FACE_OUTER_BOUND('',#211,.T.);
#137=FACE_OUTER_BOUND('',#212,.T.);
#138=FACE_OUTER_BOUND('',#213,.T.);
#139=FACE_OUTER_BOUND('',#214,.T.);
#140=FACE_OUTER_BOUND('',#215,.T.);
#141=FACE_OUTER_BOUND('',#216,.T.);
#142=FACE_OUTER_BOUND('',#217,.T.);
#143=FACE_OUTER_BOUND('',#218,.T.);
#144=FACE_OUTER_BOUND('',#219,.T.);
#145=FACE_OUTER_BOUND('',#220,.T.);
#146=FACE_OUTER_BOUND('',#223,.T.);
#147=FACE_OUTER_BOUND('',#224,.T.);
#148=FACE_OUTER_BOUND('',#225,.T.);
#149=FACE_OUTER_BOUND('',#226,.T.);
#150=FACE_OUTER_BOUND('',#227,.T.);
#151=FACE_OUTER_BOUND('',#228,.T.);
#152=FACE_OUTER_BOUND('',#229,.T.);
#153=FACE_OUTER_BOUND('',#230,.T.);
#154=FACE_OUTER_BOUND('',#231,.T.);
#155=FACE_OUTER_BOUND('',#232,.T.);
#156=FACE_OUTER_BOUND('',#233,.T.);
#157=FACE_OUTER_BOUND('',#234,.T.);
#158=FACE_OUTER_BOUND('',#235,.T.);
#159=FACE_OUTER_BOUND('',#236,.T.);
#160=FACE_OUTER_BOUND('',#237,.T.);
#161=FACE_OUTER_BOUND('',#238,.T.);
#162=FACE_OUTER_BOUND('',#239,.T.);
#163=FACE_OUTER_BOUND('',#240,.T.);
#164=FACE_OUTER_BOUND('',#241,.T.);
#165=FACE_OUTER_BOUND('',#242,.T.);
#166=FACE_OUTER_BOUND('',#243,.T.);
#167=FACE_OUTER_BOUND('',#244,.T.);
#168=FACE_OUTER_BOUND('',#245,.T.);
#169=FACE_OUTER_BOUND('',#246,.T.);
#170=FACE_OUTER_BOUND('',#247,.T.);
#171=FACE_OUTER_BOUND('',#249,.T.);
#172=FACE_OUTER_BOUND('',#250,.T.);
#173=EDGE_LOOP('',(#741,#742,#743,#744));
#174=EDGE_LOOP('',(#745,#746,#747,#748));
#175=EDGE_LOOP('',(#749,#750,#751,#752));
#176=EDGE_LOOP('',(#753,#754,#755,#756));
#177=EDGE_LOOP('',(#757,#758,#759,#760));
#178=EDGE_LOOP('',(#761,#762,#763,#764));
#179=EDGE_LOOP('',(#765,#766,#767,#768));
#180=EDGE_LOOP('',(#769,#770,#771,#772));
#181=EDGE_LOOP('',(#773,#774,#775,#776));
#182=EDGE_LOOP('',(#777,#778,#779,#780));
#183=EDGE_LOOP('',(#781,#782,#783,#784));
#184=EDGE_LOOP('',(#785,#786,#787,#788,#789));
#185=EDGE_LOOP('',(#790));
#186=EDGE_LOOP('',(#791));
#187=EDGE_LOOP('',(#792,#793,#794,#795));
#188=EDGE_LOOP('',(#796,#797,#798,#799));
#189=EDGE_LOOP('',(#800,#801,#802,#803));
#190=EDGE_LOOP('',(#804,#805,#806,#807));
#191=EDGE_LOOP('',(#808,#809,#810,#811));
#192=EDGE_LOOP('',(#812,#813,#814,#815));
#193=EDGE_LOOP('',(#816,#817,#818,#819));
#194=EDGE_LOOP('',(#820,#821,#822,#823));
#195=EDGE_LOOP('',(#824,#825,#826,#827));
#196=EDGE_LOOP('',(#828,#829,#830,#831));
#197=EDGE_LOOP('',(#832,#833,#834,#835));
#198=EDGE_LOOP('',(#836,#837,#838,#839));
#199=EDGE_LOOP('',(#840,#841,#842,#843));
#200=EDGE_LOOP('',(#844,#845,#846,#847));
#201=EDGE_LOOP('',(#848,#849,#850,#851,#852,#853,#854,#855,#856,#857));
#202=EDGE_LOOP('',(#858,#859,#860,#861,#862,#863));
#203=EDGE_LOOP('',(#864,#865,#866,#867,#868));
#204=EDGE_LOOP('',(#869,#870,#871,#872,#873,#874,#875,#876,#877));
#205=EDGE_LOOP('',(#878,#879,#880,#881,#882,#883));
#206=EDGE_LOOP('',(#884,#885,#886,#887));
#207=EDGE_LOOP('',(#888));
#208=EDGE_LOOP('',(#889));
#209=EDGE_LOOP('',(#890,#891,#892,#893));
#210=EDGE_LOOP('',(#894,#895,#896,#897));
#211=EDGE_LOOP('',(#898,#899,#900,#901));
#212=EDGE_LOOP('',(#902,#903,#904,#905,#906,#907,#908));
#213=EDGE_LOOP('',(#909,#910,#911,#912));
#214=EDGE_LOOP('',(#913,#914,#915,#916));
#215=EDGE_LOOP('',(#917,#918,#919,#920));
#216=EDGE_LOOP('',(#921,#922,#923,#924));
#217=EDGE_LOOP('',(#925,#926,#927,#928));
#218=EDGE_LOOP('',(#929));
#219=EDGE_LOOP('',(#930,#931,#932,#933));
#220=EDGE_LOOP('',(#934,#935,#936,#937));
#221=EDGE_LOOP('',(#938));
#222=EDGE_LOOP('',(#939));
#223=EDGE_LOOP('',(#940,#941,#942,#943));
#224=EDGE_LOOP('',(#944,#945,#946,#947));
#225=EDGE_LOOP('',(#948,#949,#950,#951,#952,#953));
#226=EDGE_LOOP('',(#954,#955,#956,#957,#958));
#227=EDGE_LOOP('',(#959,#960,#961,#962));
#228=EDGE_LOOP('',(#963,#964,#965,#966));
#229=EDGE_LOOP('',(#967,#968,#969,#970,#971));
#230=EDGE_LOOP('',(#972,#973,#974));
#231=EDGE_LOOP('',(#975,#976,#977,#978));
#232=EDGE_LOOP('',(#979,#980,#981,#982));
#233=EDGE_LOOP('',(#983,#984,#985,#986));
#234=EDGE_LOOP('',(#987,#988,#989,#990,#991,#992));
#235=EDGE_LOOP('',(#993,#994,#995,#996,#997));
#236=EDGE_LOOP('',(#998,#999,#1000,#1001));
#237=EDGE_LOOP('',(#1002,#1003,#1004,#1005));
#238=EDGE_LOOP('',(#1006,#1007,#1008,#1009));
#239=EDGE_LOOP('',(#1010,#1011,#1012,#1013));
#240=EDGE_LOOP('',(#1014));
#241=EDGE_LOOP('',(#1015));
#242=EDGE_LOOP('',(#1016));
#243=EDGE_LOOP('',(#1017));
#244=EDGE_LOOP('',(#1018));
#245=EDGE_LOOP('',(#1019,#1020,#1021,#1022));
#246=EDGE_LOOP('',(#1023,#1024,#1025,#1026));
#247=EDGE_LOOP('',(#1027));
#248=EDGE_LOOP('',(#1028));
#249=EDGE_LOOP('',(#1029));
#250=EDGE_LOOP('',(#1030));
#251=LINE('',#1590,#364);
#252=LINE('',#1593,#365);
#253=LINE('',#1596,#366);
#254=LINE('',#1598,#367);
#255=LINE('',#1599,#368);
#256=LINE('',#1605,#369);
#257=LINE('',#1607,#370);
#258=LINE('',#1608,#371);
#259=LINE('',#1613,#372);
#260=LINE('',#1619,#373);
#261=LINE('',#1624,#374);
#262=LINE('',#1626,#375);
#263=LINE('',#1628,#376);
#264=LINE('',#1629,#377);
#265=LINE('',#1632,#378);
#266=LINE('',#1634,#379);
#267=LINE('',#1635,#380);
#268=LINE('',#1638,#381);
#269=LINE('',#1640,#382);
#270=LINE('',#1641,#383);
#271=LINE('',#1644,#384);
#272=LINE('',#1646,#385);
#273=LINE('',#1647,#386);
#274=LINE('',#1649,#387);
#275=LINE('',#1650,#388);
#276=LINE('',#1656,#389);
#277=LINE('',#1662,#390);
#278=LINE('',#1668,#391);
#279=LINE('',#1674,#392);
#280=LINE('',#1679,#393);
#281=LINE('',#1683,#394);
#282=LINE('',#1687,#395);
#283=LINE('',#1690,#396);
#284=LINE('',#1694,#397);
#285=LINE('',#1698,#398);
#286=LINE('',#1702,#399);
#287=LINE('',#1707,#400);
#288=LINE('',#1711,#401);
#289=LINE('',#1713,#402);
#290=LINE('',#1715,#403);
#291=LINE('',#1716,#404);
#292=LINE('',#1720,#405);
#293=LINE('',#1722,#406);
#294=LINE('',#1724,#407);
#295=LINE('',#1726,#408);
#296=LINE('',#1728,#409);
#297=LINE('',#1730,#410);
#298=LINE('',#1732,#411);
#299=LINE('',#1734,#412);
#300=LINE('',#1736,#413);
#301=LINE('',#1737,#414);
#302=LINE('',#1741,#415);
#303=LINE('',#1743,#416);
#304=LINE('',#1745,#417);
#305=LINE('',#1747,#418);
#306=LINE('',#1749,#419);
#307=LINE('',#1750,#420);
#308=LINE('',#1752,#421);
#309=LINE('',#1754,#422);
#310=LINE('',#1755,#423);
#311=LINE('',#1757,#424);
#312=LINE('',#1759,#425);
#313=LINE('',#1760,#426);
#314=LINE('',#1761,#427);
#315=LINE('',#1764,#428);
#316=LINE('',#1766,#429);
#317=LINE('',#1768,#430);
#318=LINE('',#1769,#431);
#319=LINE('',#1771,#432);
#320=LINE('',#1773,#433);
#321=LINE('',#1777,#434);
#322=LINE('',#1779,#435);
#323=LINE('',#1781,#436);
#324=LINE('',#1782,#437);
#325=LINE('',#1786,#438);
#326=LINE('',#1788,#439);
#327=LINE('',#1790,#440);
#328=LINE('',#1791,#441);
#329=LINE('',#1795,#442);
#330=LINE('',#1796,#443);
#331=LINE('',#1797,#444);
#332=LINE('',#1799,#445);
#333=LINE('',#1800,#446);
#334=LINE('',#1804,#447);
#335=LINE('',#1806,#448);
#336=LINE('',#1808,#449);
#337=LINE('',#1809,#450);
#338=LINE('',#1813,#451);
#339=LINE('',#1819,#452);
#340=LINE('',#1820,#453);
#341=LINE('',#1821,#454);
#342=LINE('',#1828,#455);
#343=LINE('',#1831,#456);
#344=LINE('',#1833,#457);
#345=LINE('',#1834,#458);
#346=LINE('',#1836,#459);
#347=LINE('',#1838,#460);
#348=LINE('',#1839,#461);
#349=LINE('',#1841,#462);
#350=LINE('',#1843,#463);
#351=LINE('',#1844,#464);
#352=LINE('',#1846,#465);
#353=LINE('',#1847,#466);
#354=LINE('',#1849,#467);
#355=LINE('',#1850,#468);
#356=LINE('',#1852,#469);
#357=LINE('',#1854,#470);
#358=LINE('',#1860,#471);
#359=LINE('',#1861,#472);
#360=LINE('',#1863,#473);
#361=LINE('',#1865,#474);
#362=LINE('',#1877,#475);
#363=LINE('',#1883,#476);
#364=VECTOR('',#1258,10.);
#365=VECTOR('',#1261,10.);
#366=VECTOR('',#1264,1000.);
#367=VECTOR('',#1265,1000.);
#368=VECTOR('',#1266,10.);
#369=VECTOR('',#1273,10.);
#370=VECTOR('',#1276,1000.);
#371=VECTOR('',#1277,1000.);
#372=VECTOR('',#1282,1.69999999999999);
#373=VECTOR('',#1289,2.025);
#374=VECTOR('',#1294,1000.);
#375=VECTOR('',#1295,10.);
#376=VECTOR('',#1296,1000.);
#377=VECTOR('',#1297,10.);
#378=VECTOR('',#1300,1000.);
#379=VECTOR('',#1301,1000.);
#380=VECTOR('',#1302,10.);
#381=VECTOR('',#1305,1000.);
#382=VECTOR('',#1306,1000.);
#383=VECTOR('',#1307,10.);
#384=VECTOR('',#1310,1000.);
#385=VECTOR('',#1311,1000.);
#386=VECTOR('',#1312,10.);
#387=VECTOR('',#1315,1000.);
#388=VECTOR('',#1316,1000.);
#389=VECTOR('',#1323,0.799999999999999);
#390=VECTOR('',#1330,0.799999999999999);
#391=VECTOR('',#1337,0.799999999999999);
#392=VECTOR('',#1344,0.799999999999999);
#393=VECTOR('',#1351,2.025);
#394=VECTOR('',#1356,1.65);
#395=VECTOR('',#1361,1.5);
#396=VECTOR('',#1364,1.025);
#397=VECTOR('',#1369,1.025);
#398=VECTOR('',#1374,1.025);
#399=VECTOR('',#1379,1.025);
#400=VECTOR('',#1386,1.5);
#401=VECTOR('',#1389,1000.);
#402=VECTOR('',#1390,1000.);
#403=VECTOR('',#1391,1000.);
#404=VECTOR('',#1392,1000.);
#405=VECTOR('',#1395,1000.);
#406=VECTOR('',#1396,1000.);
#407=VECTOR('',#1397,1000.);
#408=VECTOR('',#1398,1000.);
#409=VECTOR('',#1399,1000.);
#410=VECTOR('',#1400,1000.);
#411=VECTOR('',#1401,1000.);
#412=VECTOR('',#1402,1000.);
#413=VECTOR('',#1403,1000.);
#414=VECTOR('',#1404,1000.);
#415=VECTOR('',#1407,1000.);
#416=VECTOR('',#1408,1000.);
#417=VECTOR('',#1409,1000.);
#418=VECTOR('',#1410,1000.);
#419=VECTOR('',#1411,1000.);
#420=VECTOR('',#1412,1000.);
#421=VECTOR('',#1415,1000.);
#422=VECTOR('',#1416,1000.);
#423=VECTOR('',#1417,1000.);
#424=VECTOR('',#1420,1000.);
#425=VECTOR('',#1421,1000.);
#426=VECTOR('',#1422,1000.);
#427=VECTOR('',#1423,1000.);
#428=VECTOR('',#1426,1000.);
#429=VECTOR('',#1427,1000.);
#430=VECTOR('',#1428,1000.);
#431=VECTOR('',#1429,1000.);
#432=VECTOR('',#1432,1000.);
#433=VECTOR('',#1435,1000.);
#434=VECTOR('',#1438,1000.);
#435=VECTOR('',#1439,1000.);
#436=VECTOR('',#1440,1000.);
#437=VECTOR('',#1441,1000.);
#438=VECTOR('',#1444,1000.);
#439=VECTOR('',#1445,1000.);
#440=VECTOR('',#1446,1000.);
#441=VECTOR('',#1447,1000.);
#442=VECTOR('',#1450,1000.);
#443=VECTOR('',#1451,1000.);
#444=VECTOR('',#1452,1000.);
#445=VECTOR('',#1453,1000.);
#446=VECTOR('',#1454,1000.);
#447=VECTOR('',#1457,1000.);
#448=VECTOR('',#1458,1000.);
#449=VECTOR('',#1459,1000.);
#450=VECTOR('',#1460,1000.);
#451=VECTOR('',#1463,1000.);
#452=VECTOR('',#1470,1000.);
#453=VECTOR('',#1471,1000.);
#454=VECTOR('',#1472,1000.);
#455=VECTOR('',#1485,1000.);
#456=VECTOR('',#1490,1000.);
#457=VECTOR('',#1493,1000.);
#458=VECTOR('',#1494,1000.);
#459=VECTOR('',#1497,1000.);
#460=VECTOR('',#1498,1000.);
#461=VECTOR('',#1499,1000.);
#462=VECTOR('',#1502,1000.);
#463=VECTOR('',#1505,1000.);
#464=VECTOR('',#1506,1000.);
#465=VECTOR('',#1509,1000.);
#466=VECTOR('',#1510,1000.);
#467=VECTOR('',#1513,1000.);
#468=VECTOR('',#1514,1000.);
#469=VECTOR('',#1517,1000.);
#470=VECTOR('',#1520,1000.);
#471=VECTOR('',#1531,1000.);
#472=VECTOR('',#1532,1000.);
#473=VECTOR('',#1535,1000.);
#474=VECTOR('',#1538,1000.);
#475=VECTOR('',#1557,1.);
#476=VECTOR('',#1564,2.5);
#477=CIRCLE('',#1143,1.69999999999999);
#478=CIRCLE('',#1144,1.69999999999999);
#479=CIRCLE('',#1147,1.69999999999999);
#480=CIRCLE('',#1148,1.69999999999999);
#481=CIRCLE('',#1151,1.69999999999999);
#482=CIRCLE('',#1152,1.69999999999999);
#483=CIRCLE('',#1154,2.025);
#484=CIRCLE('',#1155,2.025);
#485=CIRCLE('',#1163,0.799999999999999);
#486=CIRCLE('',#1164,0.8);
#487=CIRCLE('',#1166,0.799999999999999);
#488=CIRCLE('',#1167,0.8);
#489=CIRCLE('',#1169,0.799999999999999);
#490=CIRCLE('',#1170,0.8);
#491=CIRCLE('',#1172,0.799999999999999);
#492=CIRCLE('',#1173,0.8);
#493=CIRCLE('',#1175,1.65);
#494=CIRCLE('',#1177,1.65);
#495=CIRCLE('',#1179,1.5);
#496=CIRCLE('',#1181,1.025);
#497=CIRCLE('',#1183,1.025);
#498=CIRCLE('',#1185,1.025);
#499=CIRCLE('',#1187,1.025);
#500=CIRCLE('',#1189,1.5);
#501=CIRCLE('',#1203,1.5);
#502=CIRCLE('',#1204,1.5);
#503=CIRCLE('',#1207,1.49999999999999);
#504=CIRCLE('',#1208,1.49999999999999);
#505=CIRCLE('',#1237,1.);
#506=CIRCLE('',#1238,1.);
#507=CIRCLE('',#1240,2.5);
#508=CIRCLE('',#1241,2.5);
#509=VERTEX_POINT('',#1586);
#510=VERTEX_POINT('',#1587);
#511=VERTEX_POINT('',#1589);
#512=VERTEX_POINT('',#1591);
#513=VERTEX_POINT('',#1595);
#514=VERTEX_POINT('',#1597);
#515=VERTEX_POINT('',#1601);
#516=VERTEX_POINT('',#1603);
#517=VERTEX_POINT('',#1610);
#518=VERTEX_POINT('',#1612);
#519=VERTEX_POINT('',#1616);
#520=VERTEX_POINT('',#1618);
#521=VERTEX_POINT('',#1622);
#522=VERTEX_POINT('',#1623);
#523=VERTEX_POINT('',#1625);
#524=VERTEX_POINT('',#1627);
#525=VERTEX_POINT('',#1631);
#526=VERTEX_POINT('',#1633);
#527=VERTEX_POINT('',#1637);
#528=VERTEX_POINT('',#1639);
#529=VERTEX_POINT('',#1643);
#530=VERTEX_POINT('',#1645);
#531=VERTEX_POINT('',#1653);
#532=VERTEX_POINT('',#1655);
#533=VERTEX_POINT('',#1659);
#534=VERTEX_POINT('',#1661);
#535=VERTEX_POINT('',#1665);
#536=VERTEX_POINT('',#1667);
#537=VERTEX_POINT('',#1671);
#538=VERTEX_POINT('',#1673);
#539=VERTEX_POINT('',#1677);
#540=VERTEX_POINT('',#1681);
#541=VERTEX_POINT('',#1685);
#542=VERTEX_POINT('',#1689);
#543=VERTEX_POINT('',#1693);
#544=VERTEX_POINT('',#1697);
#545=VERTEX_POINT('',#1701);
#546=VERTEX_POINT('',#1705);
#547=VERTEX_POINT('',#1709);
#548=VERTEX_POINT('',#1710);
#549=VERTEX_POINT('',#1712);
#550=VERTEX_POINT('',#1714);
#551=VERTEX_POINT('',#1718);
#552=VERTEX_POINT('',#1719);
#553=VERTEX_POINT('',#1721);
#554=VERTEX_POINT('',#1723);
#555=VERTEX_POINT('',#1725);
#556=VERTEX_POINT('',#1727);
#557=VERTEX_POINT('',#1729);
#558=VERTEX_POINT('',#1731);
#559=VERTEX_POINT('',#1733);
#560=VERTEX_POINT('',#1735);
#561=VERTEX_POINT('',#1739);
#562=VERTEX_POINT('',#1740);
#563=VERTEX_POINT('',#1742);
#564=VERTEX_POINT('',#1744);
#565=VERTEX_POINT('',#1746);
#566=VERTEX_POINT('',#1748);
#567=VERTEX_POINT('',#1753);
#568=VERTEX_POINT('',#1758);
#569=VERTEX_POINT('',#1763);
#570=VERTEX_POINT('',#1765);
#571=VERTEX_POINT('',#1767);
#572=VERTEX_POINT('',#1775);
#573=VERTEX_POINT('',#1776);
#574=VERTEX_POINT('',#1778);
#575=VERTEX_POINT('',#1780);
#576=VERTEX_POINT('',#1784);
#577=VERTEX_POINT('',#1785);
#578=VERTEX_POINT('',#1787);
#579=VERTEX_POINT('',#1789);
#580=VERTEX_POINT('',#1793);
#581=VERTEX_POINT('',#1794);
#582=VERTEX_POINT('',#1798);
#583=VERTEX_POINT('',#1802);
#584=VERTEX_POINT('',#1803);
#585=VERTEX_POINT('',#1805);
#586=VERTEX_POINT('',#1807);
#587=VERTEX_POINT('',#1811);
#588=VERTEX_POINT('',#1812);
#589=VERTEX_POINT('',#1817);
#590=VERTEX_POINT('',#1818);
#591=VERTEX_POINT('',#1837);
#592=VERTEX_POINT('',#1874);
#593=VERTEX_POINT('',#1876);
#594=VERTEX_POINT('',#1880);
#595=VERTEX_POINT('',#1882);
#596=EDGE_CURVE('',#509,#510,#477,.T.);
#597=EDGE_CURVE('',#510,#511,#251,.T.);
#598=EDGE_CURVE('',#512,#511,#478,.T.);
#599=EDGE_CURVE('',#509,#512,#252,.T.);
#600=EDGE_CURVE('',#513,#509,#253,.T.);
#601=EDGE_CURVE('',#514,#512,#254,.T.);
#602=EDGE_CURVE('',#513,#514,#255,.T.);
#603=EDGE_CURVE('',#515,#513,#479,.T.);
#604=EDGE_CURVE('',#516,#514,#480,.T.);
#605=EDGE_CURVE('',#515,#516,#256,.T.);
#606=EDGE_CURVE('',#510,#515,#257,.T.);
#607=EDGE_CURVE('',#511,#516,#258,.T.);
#608=EDGE_CURVE('',#517,#517,#481,.T.);
#609=EDGE_CURVE('',#517,#518,#259,.T.);
#610=EDGE_CURVE('',#518,#518,#482,.T.);
#611=EDGE_CURVE('',#519,#519,#483,.T.);
#612=EDGE_CURVE('',#519,#520,#260,.T.);
#613=EDGE_CURVE('',#520,#520,#484,.T.);
#614=EDGE_CURVE('',#521,#522,#261,.T.);
#615=EDGE_CURVE('',#522,#523,#262,.T.);
#616=EDGE_CURVE('',#524,#523,#263,.T.);
#617=EDGE_CURVE('',#521,#524,#264,.T.);
#618=EDGE_CURVE('',#525,#521,#265,.T.);
#619=EDGE_CURVE('',#526,#524,#266,.T.);
#620=EDGE_CURVE('',#525,#526,#267,.T.);
#621=EDGE_CURVE('',#527,#525,#268,.T.);
#622=EDGE_CURVE('',#528,#526,#269,.T.);
#623=EDGE_CURVE('',#527,#528,#270,.T.);
#624=EDGE_CURVE('',#527,#529,#271,.T.);
#625=EDGE_CURVE('',#530,#528,#272,.T.);
#626=EDGE_CURVE('',#529,#530,#273,.T.);
#627=EDGE_CURVE('',#522,#529,#274,.T.);
#628=EDGE_CURVE('',#523,#530,#275,.T.);
#629=EDGE_CURVE('',#531,#531,#485,.T.);
#630=EDGE_CURVE('',#531,#532,#276,.T.);
#631=EDGE_CURVE('',#532,#532,#486,.T.);
#632=EDGE_CURVE('',#533,#533,#487,.T.);
#633=EDGE_CURVE('',#533,#534,#277,.T.);
#634=EDGE_CURVE('',#534,#534,#488,.T.);
#635=EDGE_CURVE('',#535,#535,#489,.T.);
#636=EDGE_CURVE('',#535,#536,#278,.T.);
#637=EDGE_CURVE('',#536,#536,#490,.T.);
#638=EDGE_CURVE('',#537,#537,#491,.T.);
#639=EDGE_CURVE('',#537,#538,#279,.T.);
#640=EDGE_CURVE('',#538,#538,#492,.T.);
#641=EDGE_CURVE('',#539,#539,#493,.T.);
#642=EDGE_CURVE('',#539,#520,#280,.T.);
#643=EDGE_CURVE('',#540,#540,#494,.T.);
#644=EDGE_CURVE('',#540,#539,#281,.T.);
#645=EDGE_CURVE('',#541,#541,#495,.T.);
#646=EDGE_CURVE('',#541,#518,#282,.T.);
#647=EDGE_CURVE('',#534,#542,#283,.T.);
#648=EDGE_CURVE('',#542,#542,#496,.T.);
#649=EDGE_CURVE('',#532,#543,#284,.T.);
#650=EDGE_CURVE('',#543,#543,#497,.T.);
#651=EDGE_CURVE('',#538,#544,#285,.T.);
#652=EDGE_CURVE('',#544,#544,#498,.T.);
#653=EDGE_CURVE('',#536,#545,#286,.T.);
#654=EDGE_CURVE('',#545,#545,#499,.T.);
#655=EDGE_CURVE('',#546,#546,#500,.T.);
#656=EDGE_CURVE('',#546,#541,#287,.T.);
#657=EDGE_CURVE('',#547,#548,#288,.T.);
#658=EDGE_CURVE('',#549,#547,#289,.T.);
#659=EDGE_CURVE('',#549,#550,#290,.T.);
#660=EDGE_CURVE('',#548,#550,#291,.T.);
#661=EDGE_CURVE('',#551,#552,#292,.T.);
#662=EDGE_CURVE('',#553,#552,#293,.T.);
#663=EDGE_CURVE('',#554,#553,#294,.T.);
#664=EDGE_CURVE('',#555,#554,#295,.T.);
#665=EDGE_CURVE('',#556,#555,#296,.T.);
#666=EDGE_CURVE('',#556,#557,#297,.T.);
#667=EDGE_CURVE('',#558,#557,#298,.T.);
#668=EDGE_CURVE('',#558,#559,#299,.T.);
#669=EDGE_CURVE('',#559,#560,#300,.T.);
#670=EDGE_CURVE('',#560,#551,#301,.T.);
#671=EDGE_CURVE('',#561,#562,#302,.T.);
#672=EDGE_CURVE('',#562,#563,#303,.T.);
#673=EDGE_CURVE('',#563,#564,#304,.T.);
#674=EDGE_CURVE('',#564,#565,#305,.T.);
#675=EDGE_CURVE('',#566,#565,#306,.T.);
#676=EDGE_CURVE('',#566,#561,#307,.T.);
#677=EDGE_CURVE('',#562,#552,#308,.T.);
#678=EDGE_CURVE('',#567,#551,#309,.T.);
#679=EDGE_CURVE('',#563,#567,#310,.T.);
#680=EDGE_CURVE('',#553,#549,#311,.T.);
#681=EDGE_CURVE('',#568,#561,#312,.T.);
#682=EDGE_CURVE('',#557,#568,#313,.T.);
#683=EDGE_CURVE('',#550,#556,#314,.T.);
#684=EDGE_CURVE('',#569,#566,#315,.T.);
#685=EDGE_CURVE('',#569,#570,#316,.T.);
#686=EDGE_CURVE('',#570,#571,#317,.T.);
#687=EDGE_CURVE('',#568,#571,#318,.T.);
#688=EDGE_CURVE('',#547,#554,#319,.T.);
#689=EDGE_CURVE('',#555,#548,#320,.T.);
#690=EDGE_CURVE('',#572,#573,#321,.T.);
#691=EDGE_CURVE('',#573,#574,#322,.T.);
#692=EDGE_CURVE('',#574,#575,#323,.T.);
#693=EDGE_CURVE('',#575,#572,#324,.T.);
#694=EDGE_CURVE('',#576,#577,#325,.T.);
#695=EDGE_CURVE('',#578,#577,#326,.T.);
#696=EDGE_CURVE('',#578,#579,#327,.T.);
#697=EDGE_CURVE('',#579,#576,#328,.T.);
#698=EDGE_CURVE('',#580,#581,#329,.T.);
#699=EDGE_CURVE('',#581,#572,#330,.T.);
#700=EDGE_CURVE('',#575,#570,#331,.T.);
#701=EDGE_CURVE('',#582,#569,#332,.T.);
#702=EDGE_CURVE('',#582,#580,#333,.T.);
#703=EDGE_CURVE('',#583,#584,#334,.T.);
#704=EDGE_CURVE('',#584,#585,#335,.T.);
#705=EDGE_CURVE('',#586,#585,#336,.T.);
#706=EDGE_CURVE('',#586,#583,#337,.T.);
#707=EDGE_CURVE('',#587,#588,#338,.T.);
#708=EDGE_CURVE('',#588,#584,#501,.T.);
#709=EDGE_CURVE('',#587,#583,#502,.T.);
#710=EDGE_CURVE('',#589,#590,#339,.T.);
#711=EDGE_CURVE('',#590,#588,#340,.T.);
#712=EDGE_CURVE('',#589,#587,#341,.T.);
#713=EDGE_CURVE('',#585,#590,#503,.T.);
#714=EDGE_CURVE('',#586,#589,#504,.T.);
#715=EDGE_CURVE('',#571,#558,#342,.T.);
#716=EDGE_CURVE('',#574,#571,#343,.T.);
#717=EDGE_CURVE('',#558,#573,#344,.T.);
#718=EDGE_CURVE('',#572,#559,#345,.T.);
#719=EDGE_CURVE('',#567,#521,#346,.T.);
#720=EDGE_CURVE('',#560,#591,#347,.T.);
#721=EDGE_CURVE('',#522,#591,#348,.T.);
#722=EDGE_CURVE('',#564,#525,#349,.T.);
#723=EDGE_CURVE('',#565,#578,#350,.T.);
#724=EDGE_CURVE('',#579,#564,#351,.T.);
#725=EDGE_CURVE('',#577,#582,#352,.T.);
#726=EDGE_CURVE('',#580,#576,#353,.T.);
#727=EDGE_CURVE('',#591,#581,#354,.T.);
#728=EDGE_CURVE('',#529,#580,#355,.T.);
#729=EDGE_CURVE('',#579,#525,#356,.T.);
#730=EDGE_CURVE('',#527,#576,#357,.T.);
#731=EDGE_CURVE('',#510,#585,#358,.T.);
#732=EDGE_CURVE('',#590,#509,#359,.T.);
#733=EDGE_CURVE('',#588,#513,#360,.T.);
#734=EDGE_CURVE('',#515,#584,#361,.T.);
#735=EDGE_CURVE('',#592,#592,#505,.T.);
#736=EDGE_CURVE('',#592,#593,#362,.T.);
#737=EDGE_CURVE('',#593,#593,#506,.T.);
#738=EDGE_CURVE('',#594,#594,#507,.T.);
#739=EDGE_CURVE('',#594,#595,#363,.T.);
#740=EDGE_CURVE('',#595,#595,#508,.T.);
#741=ORIENTED_EDGE('',*,*,#596,.T.);
#742=ORIENTED_EDGE('',*,*,#597,.T.);
#743=ORIENTED_EDGE('',*,*,#598,.F.);
#744=ORIENTED_EDGE('',*,*,#599,.F.);
#745=ORIENTED_EDGE('',*,*,#600,.T.);
#746=ORIENTED_EDGE('',*,*,#599,.T.);
#747=ORIENTED_EDGE('',*,*,#601,.F.);
#748=ORIENTED_EDGE('',*,*,#602,.F.);
#749=ORIENTED_EDGE('',*,*,#603,.T.);
#750=ORIENTED_EDGE('',*,*,#602,.T.);
#751=ORIENTED_EDGE('',*,*,#604,.F.);
#752=ORIENTED_EDGE('',*,*,#605,.F.);
#753=ORIENTED_EDGE('',*,*,#606,.T.);
#754=ORIENTED_EDGE('',*,*,#605,.T.);
#755=ORIENTED_EDGE('',*,*,#607,.F.);
#756=ORIENTED_EDGE('',*,*,#597,.F.);
#757=ORIENTED_EDGE('',*,*,#608,.F.);
#758=ORIENTED_EDGE('',*,*,#609,.T.);
#759=ORIENTED_EDGE('',*,*,#610,.T.);
#760=ORIENTED_EDGE('',*,*,#609,.F.);
#761=ORIENTED_EDGE('',*,*,#611,.F.);
#762=ORIENTED_EDGE('',*,*,#612,.T.);
#763=ORIENTED_EDGE('',*,*,#613,.F.);
#764=ORIENTED_EDGE('',*,*,#612,.F.);
#765=ORIENTED_EDGE('',*,*,#614,.T.);
#766=ORIENTED_EDGE('',*,*,#615,.T.);
#767=ORIENTED_EDGE('',*,*,#616,.F.);
#768=ORIENTED_EDGE('',*,*,#617,.F.);
#769=ORIENTED_EDGE('',*,*,#618,.T.);
#770=ORIENTED_EDGE('',*,*,#617,.T.);
#771=ORIENTED_EDGE('',*,*,#619,.F.);
#772=ORIENTED_EDGE('',*,*,#620,.F.);
#773=ORIENTED_EDGE('',*,*,#621,.T.);
#774=ORIENTED_EDGE('',*,*,#620,.T.);
#775=ORIENTED_EDGE('',*,*,#622,.F.);
#776=ORIENTED_EDGE('',*,*,#623,.F.);
#777=ORIENTED_EDGE('',*,*,#624,.F.);
#778=ORIENTED_EDGE('',*,*,#623,.T.);
#779=ORIENTED_EDGE('',*,*,#625,.F.);
#780=ORIENTED_EDGE('',*,*,#626,.F.);
#781=ORIENTED_EDGE('',*,*,#627,.T.);
#782=ORIENTED_EDGE('',*,*,#626,.T.);
#783=ORIENTED_EDGE('',*,*,#628,.F.);
#784=ORIENTED_EDGE('',*,*,#615,.F.);
#785=ORIENTED_EDGE('',*,*,#628,.T.);
#786=ORIENTED_EDGE('',*,*,#625,.T.);
#787=ORIENTED_EDGE('',*,*,#622,.T.);
#788=ORIENTED_EDGE('',*,*,#619,.T.);
#789=ORIENTED_EDGE('',*,*,#616,.T.);
#790=ORIENTED_EDGE('',*,*,#611,.T.);
#791=ORIENTED_EDGE('',*,*,#608,.T.);
#792=ORIENTED_EDGE('',*,*,#607,.T.);
#793=ORIENTED_EDGE('',*,*,#604,.T.);
#794=ORIENTED_EDGE('',*,*,#601,.T.);
#795=ORIENTED_EDGE('',*,*,#598,.T.);
#796=ORIENTED_EDGE('',*,*,#629,.T.);
#797=ORIENTED_EDGE('',*,*,#630,.T.);
#798=ORIENTED_EDGE('',*,*,#631,.T.);
#799=ORIENTED_EDGE('',*,*,#630,.F.);
#800=ORIENTED_EDGE('',*,*,#632,.T.);
#801=ORIENTED_EDGE('',*,*,#633,.T.);
#802=ORIENTED_EDGE('',*,*,#634,.T.);
#803=ORIENTED_EDGE('',*,*,#633,.F.);
#804=ORIENTED_EDGE('',*,*,#635,.T.);
#805=ORIENTED_EDGE('',*,*,#636,.T.);
#806=ORIENTED_EDGE('',*,*,#637,.T.);
#807=ORIENTED_EDGE('',*,*,#636,.F.);
#808=ORIENTED_EDGE('',*,*,#638,.T.);
#809=ORIENTED_EDGE('',*,*,#639,.T.);
#810=ORIENTED_EDGE('',*,*,#640,.T.);
#811=ORIENTED_EDGE('',*,*,#639,.F.);
#812=ORIENTED_EDGE('',*,*,#641,.F.);
#813=ORIENTED_EDGE('',*,*,#642,.T.);
#814=ORIENTED_EDGE('',*,*,#613,.T.);
#815=ORIENTED_EDGE('',*,*,#642,.F.);
#816=ORIENTED_EDGE('',*,*,#643,.F.);
#817=ORIENTED_EDGE('',*,*,#644,.T.);
#818=ORIENTED_EDGE('',*,*,#641,.T.);
#819=ORIENTED_EDGE('',*,*,#644,.F.);
#820=ORIENTED_EDGE('',*,*,#645,.F.);
#821=ORIENTED_EDGE('',*,*,#646,.T.);
#822=ORIENTED_EDGE('',*,*,#610,.F.);
#823=ORIENTED_EDGE('',*,*,#646,.F.);
#824=ORIENTED_EDGE('',*,*,#634,.F.);
#825=ORIENTED_EDGE('',*,*,#647,.T.);
#826=ORIENTED_EDGE('',*,*,#648,.T.);
#827=ORIENTED_EDGE('',*,*,#647,.F.);
#828=ORIENTED_EDGE('',*,*,#631,.F.);
#829=ORIENTED_EDGE('',*,*,#649,.T.);
#830=ORIENTED_EDGE('',*,*,#650,.T.);
#831=ORIENTED_EDGE('',*,*,#649,.F.);
#832=ORIENTED_EDGE('',*,*,#640,.F.);
#833=ORIENTED_EDGE('',*,*,#651,.T.);
#834=ORIENTED_EDGE('',*,*,#652,.T.);
#835=ORIENTED_EDGE('',*,*,#651,.F.);
#836=ORIENTED_EDGE('',*,*,#637,.F.);
#837=ORIENTED_EDGE('',*,*,#653,.T.);
#838=ORIENTED_EDGE('',*,*,#654,.T.);
#839=ORIENTED_EDGE('',*,*,#653,.F.);
#840=ORIENTED_EDGE('',*,*,#655,.F.);
#841=ORIENTED_EDGE('',*,*,#656,.T.);
#842=ORIENTED_EDGE('',*,*,#645,.T.);
#843=ORIENTED_EDGE('',*,*,#656,.F.);
#844=ORIENTED_EDGE('',*,*,#657,.F.);
#845=ORIENTED_EDGE('',*,*,#658,.F.);
#846=ORIENTED_EDGE('',*,*,#659,.T.);
#847=ORIENTED_EDGE('',*,*,#660,.F.);
#848=ORIENTED_EDGE('',*,*,#661,.T.);
#849=ORIENTED_EDGE('',*,*,#662,.F.);
#850=ORIENTED_EDGE('',*,*,#663,.F.);
#851=ORIENTED_EDGE('',*,*,#664,.F.);
#852=ORIENTED_EDGE('',*,*,#665,.F.);
#853=ORIENTED_EDGE('',*,*,#666,.T.);
#854=ORIENTED_EDGE('',*,*,#667,.F.);
#855=ORIENTED_EDGE('',*,*,#668,.T.);
#856=ORIENTED_EDGE('',*,*,#669,.T.);
#857=ORIENTED_EDGE('',*,*,#670,.T.);
#858=ORIENTED_EDGE('',*,*,#671,.T.);
#859=ORIENTED_EDGE('',*,*,#672,.T.);
#860=ORIENTED_EDGE('',*,*,#673,.T.);
#861=ORIENTED_EDGE('',*,*,#674,.T.);
#862=ORIENTED_EDGE('',*,*,#675,.F.);
#863=ORIENTED_EDGE('',*,*,#676,.T.);
#864=ORIENTED_EDGE('',*,*,#672,.F.);
#865=ORIENTED_EDGE('',*,*,#677,.T.);
#866=ORIENTED_EDGE('',*,*,#661,.F.);
#867=ORIENTED_EDGE('',*,*,#678,.F.);
#868=ORIENTED_EDGE('',*,*,#679,.F.);
#869=ORIENTED_EDGE('',*,*,#659,.F.);
#870=ORIENTED_EDGE('',*,*,#680,.F.);
#871=ORIENTED_EDGE('',*,*,#662,.T.);
#872=ORIENTED_EDGE('',*,*,#677,.F.);
#873=ORIENTED_EDGE('',*,*,#671,.F.);
#874=ORIENTED_EDGE('',*,*,#681,.F.);
#875=ORIENTED_EDGE('',*,*,#682,.F.);
#876=ORIENTED_EDGE('',*,*,#666,.F.);
#877=ORIENTED_EDGE('',*,*,#683,.F.);
#878=ORIENTED_EDGE('',*,*,#684,.F.);
#879=ORIENTED_EDGE('',*,*,#685,.T.);
#880=ORIENTED_EDGE('',*,*,#686,.T.);
#881=ORIENTED_EDGE('',*,*,#687,.F.);
#882=ORIENTED_EDGE('',*,*,#681,.T.);
#883=ORIENTED_EDGE('',*,*,#676,.F.);
#884=ORIENTED_EDGE('',*,*,#663,.T.);
#885=ORIENTED_EDGE('',*,*,#680,.T.);
#886=ORIENTED_EDGE('',*,*,#658,.T.);
#887=ORIENTED_EDGE('',*,*,#688,.T.);
#888=ORIENTED_EDGE('',*,*,#648,.F.);
#889=ORIENTED_EDGE('',*,*,#650,.F.);
#890=ORIENTED_EDGE('',*,*,#688,.F.);
#891=ORIENTED_EDGE('',*,*,#657,.T.);
#892=ORIENTED_EDGE('',*,*,#689,.F.);
#893=ORIENTED_EDGE('',*,*,#664,.T.);
#894=ORIENTED_EDGE('',*,*,#690,.T.);
#895=ORIENTED_EDGE('',*,*,#691,.T.);
#896=ORIENTED_EDGE('',*,*,#692,.T.);
#897=ORIENTED_EDGE('',*,*,#693,.T.);
#898=ORIENTED_EDGE('',*,*,#694,.T.);
#899=ORIENTED_EDGE('',*,*,#695,.F.);
#900=ORIENTED_EDGE('',*,*,#696,.T.);
#901=ORIENTED_EDGE('',*,*,#697,.T.);
#902=ORIENTED_EDGE('',*,*,#698,.T.);
#903=ORIENTED_EDGE('',*,*,#699,.T.);
#904=ORIENTED_EDGE('',*,*,#693,.F.);
#905=ORIENTED_EDGE('',*,*,#700,.T.);
#906=ORIENTED_EDGE('',*,*,#685,.F.);
#907=ORIENTED_EDGE('',*,*,#701,.F.);
#908=ORIENTED_EDGE('',*,*,#702,.T.);
#909=ORIENTED_EDGE('',*,*,#703,.T.);
#910=ORIENTED_EDGE('',*,*,#704,.T.);
#911=ORIENTED_EDGE('',*,*,#705,.F.);
#912=ORIENTED_EDGE('',*,*,#706,.T.);
#913=ORIENTED_EDGE('',*,*,#707,.T.);
#914=ORIENTED_EDGE('',*,*,#708,.T.);
#915=ORIENTED_EDGE('',*,*,#703,.F.);
#916=ORIENTED_EDGE('',*,*,#709,.F.);
#917=ORIENTED_EDGE('',*,*,#710,.T.);
#918=ORIENTED_EDGE('',*,*,#711,.T.);
#919=ORIENTED_EDGE('',*,*,#707,.F.);
#920=ORIENTED_EDGE('',*,*,#712,.F.);
#921=ORIENTED_EDGE('',*,*,#705,.T.);
#922=ORIENTED_EDGE('',*,*,#713,.T.);
#923=ORIENTED_EDGE('',*,*,#710,.F.);
#924=ORIENTED_EDGE('',*,*,#714,.F.);
#925=ORIENTED_EDGE('',*,*,#712,.T.);
#926=ORIENTED_EDGE('',*,*,#709,.T.);
#927=ORIENTED_EDGE('',*,*,#706,.F.);
#928=ORIENTED_EDGE('',*,*,#714,.T.);
#929=ORIENTED_EDGE('',*,*,#655,.T.);
#930=ORIENTED_EDGE('',*,*,#682,.T.);
#931=ORIENTED_EDGE('',*,*,#687,.T.);
#932=ORIENTED_EDGE('',*,*,#715,.T.);
#933=ORIENTED_EDGE('',*,*,#667,.T.);
#934=ORIENTED_EDGE('',*,*,#660,.T.);
#935=ORIENTED_EDGE('',*,*,#683,.T.);
#936=ORIENTED_EDGE('',*,*,#665,.T.);
#937=ORIENTED_EDGE('',*,*,#689,.T.);
#938=ORIENTED_EDGE('',*,*,#654,.F.);
#939=ORIENTED_EDGE('',*,*,#652,.F.);
#940=ORIENTED_EDGE('',*,*,#692,.F.);
#941=ORIENTED_EDGE('',*,*,#716,.T.);
#942=ORIENTED_EDGE('',*,*,#686,.F.);
#943=ORIENTED_EDGE('',*,*,#700,.F.);
#944=ORIENTED_EDGE('',*,*,#668,.F.);
#945=ORIENTED_EDGE('',*,*,#717,.T.);
#946=ORIENTED_EDGE('',*,*,#690,.F.);
#947=ORIENTED_EDGE('',*,*,#718,.T.);
#948=ORIENTED_EDGE('',*,*,#719,.F.);
#949=ORIENTED_EDGE('',*,*,#678,.T.);
#950=ORIENTED_EDGE('',*,*,#670,.F.);
#951=ORIENTED_EDGE('',*,*,#720,.T.);
#952=ORIENTED_EDGE('',*,*,#721,.F.);
#953=ORIENTED_EDGE('',*,*,#614,.F.);
#954=ORIENTED_EDGE('',*,*,#673,.F.);
#955=ORIENTED_EDGE('',*,*,#679,.T.);
#956=ORIENTED_EDGE('',*,*,#719,.T.);
#957=ORIENTED_EDGE('',*,*,#618,.F.);
#958=ORIENTED_EDGE('',*,*,#722,.F.);
#959=ORIENTED_EDGE('',*,*,#696,.F.);
#960=ORIENTED_EDGE('',*,*,#723,.F.);
#961=ORIENTED_EDGE('',*,*,#674,.F.);
#962=ORIENTED_EDGE('',*,*,#724,.F.);
#963=ORIENTED_EDGE('',*,*,#702,.F.);
#964=ORIENTED_EDGE('',*,*,#725,.F.);
#965=ORIENTED_EDGE('',*,*,#694,.F.);
#966=ORIENTED_EDGE('',*,*,#726,.F.);
#967=ORIENTED_EDGE('',*,*,#721,.T.);
#968=ORIENTED_EDGE('',*,*,#727,.T.);
#969=ORIENTED_EDGE('',*,*,#698,.F.);
#970=ORIENTED_EDGE('',*,*,#728,.F.);
#971=ORIENTED_EDGE('',*,*,#627,.F.);
#972=ORIENTED_EDGE('',*,*,#724,.T.);
#973=ORIENTED_EDGE('',*,*,#722,.T.);
#974=ORIENTED_EDGE('',*,*,#729,.F.);
#975=ORIENTED_EDGE('',*,*,#728,.T.);
#976=ORIENTED_EDGE('',*,*,#726,.T.);
#977=ORIENTED_EDGE('',*,*,#730,.F.);
#978=ORIENTED_EDGE('',*,*,#624,.T.);
#979=ORIENTED_EDGE('',*,*,#729,.T.);
#980=ORIENTED_EDGE('',*,*,#621,.F.);
#981=ORIENTED_EDGE('',*,*,#730,.T.);
#982=ORIENTED_EDGE('',*,*,#697,.F.);
#983=ORIENTED_EDGE('',*,*,#716,.F.);
#984=ORIENTED_EDGE('',*,*,#691,.F.);
#985=ORIENTED_EDGE('',*,*,#717,.F.);
#986=ORIENTED_EDGE('',*,*,#715,.F.);
#987=ORIENTED_EDGE('',*,*,#684,.T.);
#988=ORIENTED_EDGE('',*,*,#675,.T.);
#989=ORIENTED_EDGE('',*,*,#723,.T.);
#990=ORIENTED_EDGE('',*,*,#695,.T.);
#991=ORIENTED_EDGE('',*,*,#725,.T.);
#992=ORIENTED_EDGE('',*,*,#701,.T.);
#993=ORIENTED_EDGE('',*,*,#718,.F.);
#994=ORIENTED_EDGE('',*,*,#699,.F.);
#995=ORIENTED_EDGE('',*,*,#727,.F.);
#996=ORIENTED_EDGE('',*,*,#720,.F.);
#997=ORIENTED_EDGE('',*,*,#669,.F.);
#998=ORIENTED_EDGE('',*,*,#731,.F.);
#999=ORIENTED_EDGE('',*,*,#596,.F.);
#1000=ORIENTED_EDGE('',*,*,#732,.F.);
#1001=ORIENTED_EDGE('',*,*,#713,.F.);
#1002=ORIENTED_EDGE('',*,*,#732,.T.);
#1003=ORIENTED_EDGE('',*,*,#600,.F.);
#1004=ORIENTED_EDGE('',*,*,#733,.F.);
#1005=ORIENTED_EDGE('',*,*,#711,.F.);
#1006=ORIENTED_EDGE('',*,*,#731,.T.);
#1007=ORIENTED_EDGE('',*,*,#704,.F.);
#1008=ORIENTED_EDGE('',*,*,#734,.F.);
#1009=ORIENTED_EDGE('',*,*,#606,.F.);
#1010=ORIENTED_EDGE('',*,*,#733,.T.);
#1011=ORIENTED_EDGE('',*,*,#603,.F.);
#1012=ORIENTED_EDGE('',*,*,#734,.T.);
#1013=ORIENTED_EDGE('',*,*,#708,.F.);
#1014=ORIENTED_EDGE('',*,*,#643,.T.);
#1015=ORIENTED_EDGE('',*,*,#629,.F.);
#1016=ORIENTED_EDGE('',*,*,#632,.F.);
#1017=ORIENTED_EDGE('',*,*,#635,.F.);
#1018=ORIENTED_EDGE('',*,*,#638,.F.);
#1019=ORIENTED_EDGE('',*,*,#735,.T.);
#1020=ORIENTED_EDGE('',*,*,#736,.T.);
#1021=ORIENTED_EDGE('',*,*,#737,.F.);
#1022=ORIENTED_EDGE('',*,*,#736,.F.);
#1023=ORIENTED_EDGE('',*,*,#738,.T.);
#1024=ORIENTED_EDGE('',*,*,#739,.T.);
#1025=ORIENTED_EDGE('',*,*,#740,.F.);
#1026=ORIENTED_EDGE('',*,*,#739,.F.);
#1027=ORIENTED_EDGE('',*,*,#740,.T.);
#1028=ORIENTED_EDGE('',*,*,#735,.F.);
#1029=ORIENTED_EDGE('',*,*,#738,.F.);
#1030=ORIENTED_EDGE('',*,*,#737,.T.);
#1031=CYLINDRICAL_SURFACE('',#1142,1.69999999999999);
#1032=CYLINDRICAL_SURFACE('',#1146,1.69999999999999);
#1033=CYLINDRICAL_SURFACE('',#1150,1.69999999999999);
#1034=CYLINDRICAL_SURFACE('',#1153,2.025);
#1035=CYLINDRICAL_SURFACE('',#1162,0.799999999999999);
#1036=CYLINDRICAL_SURFACE('',#1165,0.799999999999999);
#1037=CYLINDRICAL_SURFACE('',#1168,0.799999999999999);
#1038=CYLINDRICAL_SURFACE('',#1171,0.799999999999999);
#1039=CYLINDRICAL_SURFACE('',#1176,1.65);
#1040=CYLINDRICAL_SURFACE('',#1188,1.5);
#1041=CYLINDRICAL_SURFACE('',#1202,1.5);
#1042=CYLINDRICAL_SURFACE('',#1206,1.49999999999999);
#1043=CYLINDRICAL_SURFACE('',#1236,1.);
#1044=CYLINDRICAL_SURFACE('',#1239,2.5);
#1045=ADVANCED_FACE('',(#103),#1031,.F.);
#1046=ADVANCED_FACE('',(#104),#55,.T.);
#1047=ADVANCED_FACE('',(#105),#1032,.F.);
#1048=ADVANCED_FACE('',(#106),#56,.T.);
#1049=ADVANCED_FACE('',(#107),#1033,.F.);
#1050=ADVANCED_FACE('',(#108),#1034,.F.);
#1051=ADVANCED_FACE('',(#109),#57,.T.);
#1052=ADVANCED_FACE('',(#110),#58,.T.);
#1053=ADVANCED_FACE('',(#111),#59,.T.);
#1054=ADVANCED_FACE('',(#112),#60,.T.);
#1055=ADVANCED_FACE('',(#113),#61,.T.);
#1056=ADVANCED_FACE('',(#114,#47,#48,#49),#62,.T.);
#1057=ADVANCED_FACE('',(#115),#1035,.F.);
#1058=ADVANCED_FACE('',(#116),#1036,.F.);
#1059=ADVANCED_FACE('',(#117),#1037,.F.);
#1060=ADVANCED_FACE('',(#118),#1038,.F.);
#1061=ADVANCED_FACE('',(#119),#39,.F.);
#1062=ADVANCED_FACE('',(#120),#1039,.F.);
#1063=ADVANCED_FACE('',(#121),#40,.F.);
#1064=ADVANCED_FACE('',(#122),#41,.F.);
#1065=ADVANCED_FACE('',(#123),#42,.F.);
#1066=ADVANCED_FACE('',(#124),#43,.F.);
#1067=ADVANCED_FACE('',(#125),#44,.F.);
#1068=ADVANCED_FACE('',(#126),#1040,.F.);
#1069=ADVANCED_FACE('',(#127),#63,.T.);
#1070=ADVANCED_FACE('',(#128),#64,.T.);
#1071=ADVANCED_FACE('',(#129),#65,.T.);
#1072=ADVANCED_FACE('',(#130),#66,.F.);
#1073=ADVANCED_FACE('',(#131),#67,.F.);
#1074=ADVANCED_FACE('',(#132),#68,.T.);
#1075=ADVANCED_FACE('',(#133,#50,#51),#69,.T.);
#1076=ADVANCED_FACE('',(#134),#70,.T.);
#1077=ADVANCED_FACE('',(#135),#71,.T.);
#1078=ADVANCED_FACE('',(#136),#72,.T.);
#1079=ADVANCED_FACE('',(#137),#73,.F.);
#1080=ADVANCED_FACE('',(#138),#74,.T.);
#1081=ADVANCED_FACE('',(#139),#1041,.F.);
#1082=ADVANCED_FACE('',(#140),#75,.F.);
#1083=ADVANCED_FACE('',(#141),#1042,.F.);
#1084=ADVANCED_FACE('',(#142),#76,.T.);
#1085=ADVANCED_FACE('',(#143),#77,.T.);
#1086=ADVANCED_FACE('',(#144),#78,.T.);
#1087=ADVANCED_FACE('',(#145,#52,#53),#79,.T.);
#1088=ADVANCED_FACE('',(#146),#80,.F.);
#1089=ADVANCED_FACE('',(#147),#81,.F.);
#1090=ADVANCED_FACE('',(#148),#82,.F.);
#1091=ADVANCED_FACE('',(#149),#83,.F.);
#1092=ADVANCED_FACE('',(#150),#84,.F.);
#1093=ADVANCED_FACE('',(#151),#85,.T.);
#1094=ADVANCED_FACE('',(#152),#86,.T.);
#1095=ADVANCED_FACE('',(#153),#87,.T.);
#1096=ADVANCED_FACE('',(#154),#88,.T.);
#1097=ADVANCED_FACE('',(#155),#89,.F.);
#1098=ADVANCED_FACE('',(#156),#90,.F.);
#1099=ADVANCED_FACE('',(#157),#91,.T.);
#1100=ADVANCED_FACE('',(#158),#92,.T.);
#1101=ADVANCED_FACE('',(#159),#45,.F.);
#1102=ADVANCED_FACE('',(#160),#93,.T.);
#1103=ADVANCED_FACE('',(#161),#94,.F.);
#1104=ADVANCED_FACE('',(#162),#46,.F.);
#1105=ADVANCED_FACE('',(#163),#95,.F.);
#1106=ADVANCED_FACE('',(#164),#96,.T.);
#1107=ADVANCED_FACE('',(#165),#97,.T.);
#1108=ADVANCED_FACE('',(#166),#98,.T.);
#1109=ADVANCED_FACE('',(#167),#99,.T.);
#1110=ADVANCED_FACE('',(#168),#1043,.T.);
#1111=ADVANCED_FACE('',(#169),#1044,.T.);
#1112=ADVANCED_FACE('',(#170,#54),#100,.T.);
#1113=ADVANCED_FACE('',(#171),#101,.F.);
#1114=ADVANCED_FACE('',(#172),#102,.T.);
#1115=CLOSED_SHELL('',(#1045,#1046,#1047,#1048,#1049,#1050,#1051,#1052,
#1053,#1054,#1055,#1056,#1057,#1058,#1059,#1060,#1061,#1062,#1063,#1064,
#1065,#1066,#1067,#1068,#1069,#1070,#1071,#1072,#1073,#1074,#1075,#1076,
#1077,#1078,#1079,#1080,#1081,#1082,#1083,#1084,#1085,#1086,#1087,#1088,
#1089,#1090,#1091,#1092,#1093,#1094,#1095,#1096,#1097,#1098,#1099,#1100,
#1101,#1102,#1103,#1104,#1105,#1106,#1107,#1108,#1109));
#1116=CLOSED_SHELL('',(#1110,#1111,#1112,#1113,#1114));
#1117=DERIVED_UNIT_ELEMENT(#1121,1.);
#1118=DERIVED_UNIT_ELEMENT(#1902,-3.);
#1119=DERIVED_UNIT_ELEMENT(#1121,1.);
#1120=DERIVED_UNIT_ELEMENT(#1902,-3.);
#1121=(
MASS_UNIT()
NAMED_UNIT(*)
SI_UNIT(.KILO.,.GRAM.)
);
#1122=DERIVED_UNIT((#1117,#1118));
#1123=DERIVED_UNIT((#1119,#1120));
#1124=MEASURE_REPRESENTATION_ITEM('density measure',
POSITIVE_RATIO_MEASURE(7850.),#1122);
#1125=MEASURE_REPRESENTATION_ITEM('density measure',
POSITIVE_RATIO_MEASURE(7850.),#1123);
#1126=PROPERTY_DEFINITION_REPRESENTATION(#1136,#1130);
#1127=PROPERTY_DEFINITION_REPRESENTATION(#1137,#1131);
#1128=PROPERTY_DEFINITION_REPRESENTATION(#1138,#1132);
#1129=PROPERTY_DEFINITION_REPRESENTATION(#1139,#1133);
#1130=REPRESENTATION('material name',(#1134),#1898);
#1131=REPRESENTATION('density',(#1124),#1898);
#1132=REPRESENTATION('material name',(#1135),#1899);
#1133=REPRESENTATION('density',(#1125),#1899);
#1134=DESCRIPTIVE_REPRESENTATION_ITEM('\X2\AC15CCA0\X0\','\X2\AC15CCA0\X0\');
#1135=DESCRIPTIVE_REPRESENTATION_ITEM('\X2\AC15CCA0\X0\','\X2\AC15CCA0\X0\');
#1136=PROPERTY_DEFINITION('material property','material name',#1921);
#1137=PROPERTY_DEFINITION('material property','density of part',#1921);
#1138=PROPERTY_DEFINITION('material property','material name',#1922);
#1139=PROPERTY_DEFINITION('material property','density of part',#1922);
#1140=AXIS2_PLACEMENT_3D('',#1583,#1250,#1251);
#1141=AXIS2_PLACEMENT_3D('',#1584,#1252,#1253);
#1142=AXIS2_PLACEMENT_3D('',#1585,#1254,#1255);
#1143=AXIS2_PLACEMENT_3D('',#1588,#1256,#1257);
#1144=AXIS2_PLACEMENT_3D('',#1592,#1259,#1260);
#1145=AXIS2_PLACEMENT_3D('',#1594,#1262,#1263);
#1146=AXIS2_PLACEMENT_3D('',#1600,#1267,#1268);
#1147=AXIS2_PLACEMENT_3D('',#1602,#1269,#1270);
#1148=AXIS2_PLACEMENT_3D('',#1604,#1271,#1272);
#1149=AXIS2_PLACEMENT_3D('',#1606,#1274,#1275);
#1150=AXIS2_PLACEMENT_3D('',#1609,#1278,#1279);
#1151=AXIS2_PLACEMENT_3D('',#1611,#1280,#1281);
#1152=AXIS2_PLACEMENT_3D('',#1614,#1283,#1284);
#1153=AXIS2_PLACEMENT_3D('',#1615,#1285,#1286);
#1154=AXIS2_PLACEMENT_3D('',#1617,#1287,#1288);
#1155=AXIS2_PLACEMENT_3D('',#1620,#1290,#1291);
#1156=AXIS2_PLACEMENT_3D('',#1621,#1292,#1293);
#1157=AXIS2_PLACEMENT_3D('',#1630,#1298,#1299);
#1158=AXIS2_PLACEMENT_3D('',#1636,#1303,#1304);
#1159=AXIS2_PLACEMENT_3D('',#1642,#1308,#1309);
#1160=AXIS2_PLACEMENT_3D('',#1648,#1313,#1314);
#1161=AXIS2_PLACEMENT_3D('',#1651,#1317,#1318);
#1162=AXIS2_PLACEMENT_3D('',#1652,#1319,#1320);
#1163=AXIS2_PLACEMENT_3D('',#1654,#1321,#1322);
#1164=AXIS2_PLACEMENT_3D('',#1657,#1324,#1325);
#1165=AXIS2_PLACEMENT_3D('',#1658,#1326,#1327);
#1166=AXIS2_PLACEMENT_3D('',#1660,#1328,#1329);
#1167=AXIS2_PLACEMENT_3D('',#1663,#1331,#1332);
#1168=AXIS2_PLACEMENT_3D('',#1664,#1333,#1334);
#1169=AXIS2_PLACEMENT_3D('',#1666,#1335,#1336);
#1170=AXIS2_PLACEMENT_3D('',#1669,#1338,#1339);
#1171=AXIS2_PLACEMENT_3D('',#1670,#1340,#1341);
#1172=AXIS2_PLACEMENT_3D('',#1672,#1342,#1343);
#1173=AXIS2_PLACEMENT_3D('',#1675,#1345,#1346);
#1174=AXIS2_PLACEMENT_3D('',#1676,#1347,#1348);
#1175=AXIS2_PLACEMENT_3D('',#1678,#1349,#1350);
#1176=AXIS2_PLACEMENT_3D('',#1680,#1352,#1353);
#1177=AXIS2_PLACEMENT_3D('',#1682,#1354,#1355);
#1178=AXIS2_PLACEMENT_3D('',#1684,#1357,#1358);
#1179=AXIS2_PLACEMENT_3D('',#1686,#1359,#1360);
#1180=AXIS2_PLACEMENT_3D('',#1688,#1362,#1363);
#1181=AXIS2_PLACEMENT_3D('',#1691,#1365,#1366);
#1182=AXIS2_PLACEMENT_3D('',#1692,#1367,#1368);
#1183=AXIS2_PLACEMENT_3D('',#1695,#1370,#1371);
#1184=AXIS2_PLACEMENT_3D('',#1696,#1372,#1373);
#1185=AXIS2_PLACEMENT_3D('',#1699,#1375,#1376);
#1186=AXIS2_PLACEMENT_3D('',#1700,#1377,#1378);
#1187=AXIS2_PLACEMENT_3D('',#1703,#1380,#1381);
#1188=AXIS2_PLACEMENT_3D('',#1704,#1382,#1383);
#1189=AXIS2_PLACEMENT_3D('',#1706,#1384,#1385);
#1190=AXIS2_PLACEMENT_3D('',#1708,#1387,#1388);
#1191=AXIS2_PLACEMENT_3D('',#1717,#1393,#1394);
#1192=AXIS2_PLACEMENT_3D('',#1738,#1405,#1406);
#1193=AXIS2_PLACEMENT_3D('',#1751,#1413,#1414);
#1194=AXIS2_PLACEMENT_3D('',#1756,#1418,#1419);
#1195=AXIS2_PLACEMENT_3D('',#1762,#1424,#1425);
#1196=AXIS2_PLACEMENT_3D('',#1770,#1430,#1431);
#1197=AXIS2_PLACEMENT_3D('',#1772,#1433,#1434);
#1198=AXIS2_PLACEMENT_3D('',#1774,#1436,#1437);
#1199=AXIS2_PLACEMENT_3D('',#1783,#1442,#1443);
#1200=AXIS2_PLACEMENT_3D('',#1792,#1448,#1449);
#1201=AXIS2_PLACEMENT_3D('',#1801,#1455,#1456);
#1202=AXIS2_PLACEMENT_3D('',#1810,#1461,#1462);
#1203=AXIS2_PLACEMENT_3D('',#1814,#1464,#1465);
#1204=AXIS2_PLACEMENT_3D('',#1815,#1466,#1467);
#1205=AXIS2_PLACEMENT_3D('',#1816,#1468,#1469);
#1206=AXIS2_PLACEMENT_3D('',#1822,#1473,#1474);
#1207=AXIS2_PLACEMENT_3D('',#1823,#1475,#1476);
#1208=AXIS2_PLACEMENT_3D('',#1824,#1477,#1478);
#1209=AXIS2_PLACEMENT_3D('',#1825,#1479,#1480);
#1210=AXIS2_PLACEMENT_3D('',#1826,#1481,#1482);
#1211=AXIS2_PLACEMENT_3D('',#1827,#1483,#1484);
#1212=AXIS2_PLACEMENT_3D('',#1829,#1486,#1487);
#1213=AXIS2_PLACEMENT_3D('',#1830,#1488,#1489);
#1214=AXIS2_PLACEMENT_3D('',#1832,#1491,#1492);
#1215=AXIS2_PLACEMENT_3D('',#1835,#1495,#1496);
#1216=AXIS2_PLACEMENT_3D('',#1840,#1500,#1501);
#1217=AXIS2_PLACEMENT_3D('',#1842,#1503,#1504);
#1218=AXIS2_PLACEMENT_3D('',#1845,#1507,#1508);
#1219=AXIS2_PLACEMENT_3D('',#1848,#1511,#1512);
#1220=AXIS2_PLACEMENT_3D('',#1851,#1515,#1516);
#1221=AXIS2_PLACEMENT_3D('',#1853,#1518,#1519);
#1222=AXIS2_PLACEMENT_3D('',#1855,#1521,#1522);
#1223=AXIS2_PLACEMENT_3D('',#1856,#1523,#1524);
#1224=AXIS2_PLACEMENT_3D('',#1857,#1525,#1526);
#1225=AXIS2_PLACEMENT_3D('',#1858,#1527,#1528);
#1226=AXIS2_PLACEMENT_3D('',#1859,#1529,#1530);
#1227=AXIS2_PLACEMENT_3D('',#1862,#1533,#1534);
#1228=AXIS2_PLACEMENT_3D('',#1864,#1536,#1537);
#1229=AXIS2_PLACEMENT_3D('',#1866,#1539,#1540);
#1230=AXIS2_PLACEMENT_3D('',#1867,#1541,#1542);
#1231=AXIS2_PLACEMENT_3D('',#1868,#1543,#1544);
#1232=AXIS2_PLACEMENT_3D('',#1869,#1545,#1546);
#1233=AXIS2_PLACEMENT_3D('',#1870,#1547,#1548);
#1234=AXIS2_PLACEMENT_3D('',#1871,#1549,#1550);
#1235=AXIS2_PLACEMENT_3D('',#1872,#1551,#1552);
#1236=AXIS2_PLACEMENT_3D('',#1873,#1553,#1554);
#1237=AXIS2_PLACEMENT_3D('',#1875,#1555,#1556);
#1238=AXIS2_PLACEMENT_3D('',#1878,#1558,#1559);
#1239=AXIS2_PLACEMENT_3D('',#1879,#1560,#1561);
#1240=AXIS2_PLACEMENT_3D('',#1881,#1562,#1563);
#1241=AXIS2_PLACEMENT_3D('',#1884,#1565,#1566);
#1242=AXIS2_PLACEMENT_3D('',#1885,#1567,#1568);
#1243=AXIS2_PLACEMENT_3D('',#1886,#1569,#1570);
#1244=AXIS2_PLACEMENT_3D('',#1887,#1571,#1572);
#1245=AXIS2_PLACEMENT_3D('',#1888,#1573,#1574);
#1246=AXIS2_PLACEMENT_3D('',#1889,#1575,#1576);
#1247=AXIS2_PLACEMENT_3D('',#1890,#1577,#1578);
#1248=AXIS2_PLACEMENT_3D('',#1891,#1579,#1580);
#1249=AXIS2_PLACEMENT_3D('',#1892,#1581,#1582);
#1250=DIRECTION('axis',(0.,0.,1.));
#1251=DIRECTION('refdir',(1.,0.,0.));
#1252=DIRECTION('axis',(0.,0.,1.));
#1253=DIRECTION('refdir',(1.,0.,0.));
#1254=DIRECTION('center_axis',(0.,1.,0.));
#1255=DIRECTION('ref_axis',(0.,0.,1.));
#1256=DIRECTION('center_axis',(0.,-1.,0.));
#1257=DIRECTION('ref_axis',(0.,0.,1.));
#1258=DIRECTION('',(0.,1.,0.));
#1259=DIRECTION('center_axis',(0.,-1.,0.));
#1260=DIRECTION('ref_axis',(0.,0.,1.));
#1261=DIRECTION('',(0.,1.,0.));
#1262=DIRECTION('center_axis',(-1.38777878078145E-14,0.,1.));
#1263=DIRECTION('ref_axis',(1.,0.,1.38777878078145E-14));
#1264=DIRECTION('',(1.,0.,1.38777878078145E-14));
#1265=DIRECTION('',(1.,0.,1.38777878078145E-14));
#1266=DIRECTION('',(0.,1.,0.));
#1267=DIRECTION('center_axis',(0.,1.,0.));
#1268=DIRECTION('ref_axis',(0.,0.,1.));
#1269=DIRECTION('center_axis',(0.,-1.,0.));
#1270=DIRECTION('ref_axis',(0.,0.,1.));
#1271=DIRECTION('center_axis',(0.,-1.,0.));
#1272=DIRECTION('ref_axis',(0.,0.,1.));
#1273=DIRECTION('',(0.,1.,0.));
#1274=DIRECTION('center_axis',(0.,0.,-1.));
#1275=DIRECTION('ref_axis',(-1.,0.,0.));
#1276=DIRECTION('',(-1.,0.,0.));
#1277=DIRECTION('',(-1.,0.,0.));
#1278=DIRECTION('center_axis',(0.,1.,0.));
#1279=DIRECTION('ref_axis',(0.,0.,1.));
#1280=DIRECTION('center_axis',(0.,-1.,0.));
#1281=DIRECTION('ref_axis',(0.,0.,1.));
#1282=DIRECTION('',(0.,-1.,0.));
#1283=DIRECTION('center_axis',(0.,-1.,0.));
#1284=DIRECTION('ref_axis',(0.,0.,1.));
#1285=DIRECTION('center_axis',(0.,1.,0.));
#1286=DIRECTION('ref_axis',(0.,0.,1.));
#1287=DIRECTION('center_axis',(0.,-1.,0.));
#1288=DIRECTION('ref_axis',(0.,0.,1.));
#1289=DIRECTION('',(0.,-1.,0.));
#1290=DIRECTION('center_axis',(0.,1.,0.));
#1291=DIRECTION('ref_axis',(0.,0.,1.));
#1292=DIRECTION('center_axis',(-1.,0.,0.));
#1293=DIRECTION('ref_axis',(0.,0.,1.));
#1294=DIRECTION('',(0.,0.,1.));
#1295=DIRECTION('',(0.,1.,0.));
#1296=DIRECTION('',(0.,0.,1.));
#1297=DIRECTION('',(0.,1.,0.));
#1298=DIRECTION('center_axis',(0.,0.,-1.));
#1299=DIRECTION('ref_axis',(-1.,0.,0.));
#1300=DIRECTION('',(-1.,0.,0.));
#1301=DIRECTION('',(-1.,0.,0.));
#1302=DIRECTION('',(0.,1.,0.));
#1303=DIRECTION('center_axis',(1.,0.,0.));
#1304=DIRECTION('ref_axis',(0.,0.,-1.));
#1305=DIRECTION('',(0.,0.,-1.));
#1306=DIRECTION('',(0.,0.,-1.));
#1307=DIRECTION('',(0.,1.,0.));
#1308=DIRECTION('center_axis',(0.707106781186572,0.,0.707106781186523));
#1309=DIRECTION('ref_axis',(0.707106781186523,0.,-0.707106781186572));
#1310=DIRECTION('',(-0.707106781186523,0.,0.707106781186572));
#1311=DIRECTION('',(0.707106781186523,0.,-0.707106781186572));
#1312=DIRECTION('',(0.,1.,0.));
#1313=DIRECTION('center_axis',(0.,0.,1.));
#1314=DIRECTION('ref_axis',(1.,0.,0.));
#1315=DIRECTION('',(1.,0.,0.));
#1316=DIRECTION('',(1.,0.,0.));
#1317=DIRECTION('center_axis',(0.,1.,0.));
#1318=DIRECTION('ref_axis',(0.,0.,1.));
#1319=DIRECTION('center_axis',(0.,0.,-1.));
#1320=DIRECTION('ref_axis',(-1.,0.,0.));
#1321=DIRECTION('center_axis',(0.,0.,1.));
#1322=DIRECTION('ref_axis',(-1.,0.,0.));
#1323=DIRECTION('',(0.,0.,-1.));
#1324=DIRECTION('center_axis',(0.,0.,-1.));
#1325=DIRECTION('ref_axis',(-1.,0.,0.));
#1326=DIRECTION('center_axis',(0.,0.,-1.));
#1327=DIRECTION('ref_axis',(-1.,0.,0.));
#1328=DIRECTION('center_axis',(0.,0.,1.));
#1329=DIRECTION('ref_axis',(-1.,0.,0.));
#1330=DIRECTION('',(0.,0.,-1.));
#1331=DIRECTION('center_axis',(0.,0.,-1.));
#1332=DIRECTION('ref_axis',(-1.,0.,0.));
#1333=DIRECTION('center_axis',(0.,0.,1.));
#1334=DIRECTION('ref_axis',(1.,0.,0.));
#1335=DIRECTION('center_axis',(0.,0.,-1.));
#1336=DIRECTION('ref_axis',(1.,0.,0.));
#1337=DIRECTION('',(0.,0.,1.));
#1338=DIRECTION('center_axis',(0.,0.,1.));
#1339=DIRECTION('ref_axis',(1.,0.,0.));
#1340=DIRECTION('center_axis',(0.,0.,1.));
#1341=DIRECTION('ref_axis',(1.,0.,0.));
#1342=DIRECTION('center_axis',(0.,0.,-1.));
#1343=DIRECTION('ref_axis',(1.,0.,0.));
#1344=DIRECTION('',(0.,0.,1.));
#1345=DIRECTION('center_axis',(0.,0.,1.));
#1346=DIRECTION('ref_axis',(1.,0.,0.));
#1347=DIRECTION('center_axis',(0.,1.,0.));
#1348=DIRECTION('ref_axis',(0.,0.,1.));
#1349=DIRECTION('center_axis',(0.,1.,0.));
#1350=DIRECTION('ref_axis',(0.,0.,1.));
#1351=DIRECTION('',(-8.65956056235489E-17,0.707106781186551,-0.707106781186544));
#1352=DIRECTION('center_axis',(0.,1.,0.));
#1353=DIRECTION('ref_axis',(0.,0.,1.));
#1354=DIRECTION('center_axis',(0.,1.,0.));
#1355=DIRECTION('ref_axis',(0.,0.,1.));
#1356=DIRECTION('',(0.,1.,0.));
#1357=DIRECTION('center_axis',(0.,1.,0.));
#1358=DIRECTION('ref_axis',(0.,0.,1.));
#1359=DIRECTION('center_axis',(0.,1.,0.));
#1360=DIRECTION('ref_axis',(0.,0.,1.));
#1361=DIRECTION('',(-8.65956056235493E-17,0.707106781186548,-0.707106781186547));
#1362=DIRECTION('center_axis',(0.,0.,-1.));
#1363=DIRECTION('ref_axis',(-1.,0.,0.));
#1364=DIRECTION('',(0.707106781186543,-8.65956056235488E-17,-0.707106781186552));
#1365=DIRECTION('center_axis',(0.,0.,-1.));
#1366=DIRECTION('ref_axis',(-1.,0.,0.));
#1367=DIRECTION('center_axis',(0.,0.,-1.));
#1368=DIRECTION('ref_axis',(-1.,0.,0.));
#1369=DIRECTION('',(0.707106781186543,-8.65956056235488E-17,-0.707106781186552));
#1370=DIRECTION('center_axis',(0.,0.,-1.));
#1371=DIRECTION('ref_axis',(-1.,0.,0.));
#1372=DIRECTION('center_axis',(0.,0.,1.));
#1373=DIRECTION('ref_axis',(1.,0.,0.));
#1374=DIRECTION('',(-0.707106781186545,-8.65956056235491E-17,0.70710678118655));
#1375=DIRECTION('center_axis',(0.,0.,1.));
#1376=DIRECTION('ref_axis',(1.,0.,0.));
#1377=DIRECTION('center_axis',(0.,0.,1.));
#1378=DIRECTION('ref_axis',(1.,0.,0.));
#1379=DIRECTION('',(-0.707106781186545,-8.65956056235491E-17,0.70710678118655));
#1380=DIRECTION('center_axis',(0.,0.,1.));
#1381=DIRECTION('ref_axis',(1.,0.,0.));
#1382=DIRECTION('center_axis',(0.,1.,0.));
#1383=DIRECTION('ref_axis',(0.,0.,1.));
#1384=DIRECTION('center_axis',(0.,1.,0.));
#1385=DIRECTION('ref_axis',(0.,0.,1.));
#1386=DIRECTION('',(0.,1.,0.));
#1387=DIRECTION('center_axis',(1.,0.,0.));
#1388=DIRECTION('ref_axis',(0.,0.,-1.));
#1389=DIRECTION('',(0.,0.,1.));
#1390=DIRECTION('',(0.,-1.,0.));
#1391=DIRECTION('',(0.,0.,1.));
#1392=DIRECTION('',(0.,1.,0.));
#1393=DIRECTION('center_axis',(-1.,0.,0.));
#1394=DIRECTION('ref_axis',(0.,0.,1.));
#1395=DIRECTION('',(0.,-1.,0.));
#1396=DIRECTION('',(0.,0.,-1.));
#1397=DIRECTION('',(-6.49652032115325E-16,1.,0.));
#1398=DIRECTION('',(0.,0.,-1.));
#1399=DIRECTION('',(-3.42247070086408E-17,-1.,0.));
#1400=DIRECTION('',(0.,0.,1.));
#1401=DIRECTION('',(6.12323399573672E-17,-1.,0.));
#1402=DIRECTION('',(0.,0.,-1.));
#1403=DIRECTION('',(0.,1.,0.));
#1404=DIRECTION('',(0.,0.,-1.));
#1405=DIRECTION('center_axis',(0.,0.,-1.));
#1406=DIRECTION('ref_axis',(-1.,0.,0.));
#1407=DIRECTION('',(-1.,0.,0.));
#1408=DIRECTION('',(0.,1.,0.));
#1409=DIRECTION('',(1.,0.,0.));
#1410=DIRECTION('',(0.,-1.,0.));
#1411=DIRECTION('',(1.,0.,0.));
#1412=DIRECTION('',(-5.78241158658935E-16,-1.,0.));
#1413=DIRECTION('center_axis',(0.707106781186548,0.,0.707106781186547));
#1414=DIRECTION('ref_axis',(0.,-1.,0.));
#1415=DIRECTION('',(-0.707106781186547,0.,0.707106781186548));
#1416=DIRECTION('',(-0.577350269189619,-0.577350269189639,0.577350269189619));
#1417=DIRECTION('',(-0.577350269189619,0.577350269189639,0.577350269189619));
#1418=DIRECTION('center_axis',(0.,1.,0.));
#1419=DIRECTION('ref_axis',(0.,0.,1.));
#1420=DIRECTION('',(1.,0.,0.));
#1421=DIRECTION('',(0.,0.,-1.));
#1422=DIRECTION('',(1.,0.,0.));
#1423=DIRECTION('',(-1.,0.,0.));
#1424=DIRECTION('center_axis',(1.,-5.78241158658935E-16,0.));
#1425=DIRECTION('ref_axis',(5.78241158658935E-16,1.,0.));
#1426=DIRECTION('',(0.,0.,-1.));
#1427=DIRECTION('',(0.,-1.,0.));
#1428=DIRECTION('',(0.,0.,1.));
#1429=DIRECTION('',(0.,1.,0.));
#1430=DIRECTION('center_axis',(0.,0.,-1.));
#1431=DIRECTION('ref_axis',(-1.,0.,0.));
#1432=DIRECTION('',(-1.,0.,0.));
#1433=DIRECTION('center_axis',(0.,-1.,0.));
#1434=DIRECTION('ref_axis',(0.,0.,-1.));
#1435=DIRECTION('',(1.,0.,0.));
#1436=DIRECTION('center_axis',(0.,1.,0.));
#1437=DIRECTION('ref_axis',(0.,0.,1.));
#1438=DIRECTION('',(0.,0.,1.));
#1439=DIRECTION('',(1.,0.,0.));
#1440=DIRECTION('',(0.,0.,-1.));
#1441=DIRECTION('',(-1.,0.,0.));
#1442=DIRECTION('center_axis',(1.,0.,0.));
#1443=DIRECTION('ref_axis',(0.,0.,-1.));
#1444=DIRECTION('',(0.,-1.,0.));
#1445=DIRECTION('',(0.,0.,1.));
#1446=DIRECTION('',(0.,1.,0.));
#1447=DIRECTION('',(0.,0.,1.));
#1448=DIRECTION('center_axis',(0.,0.,-1.));
#1449=DIRECTION('ref_axis',(-1.,0.,0.));
#1450=DIRECTION('',(-1.,0.,0.));
#1451=DIRECTION('',(0.,-1.,0.));
#1452=DIRECTION('',(0.707106781186549,-0.707106781186546,0.));
#1453=DIRECTION('',(-1.,0.,0.));
#1454=DIRECTION('',(0.,1.,0.));
#1455=DIRECTION('center_axis',(0.,0.,-1.));
#1456=DIRECTION('ref_axis',(-1.,0.,0.));
#1457=DIRECTION('',(0.,1.,0.));
#1458=DIRECTION('',(1.,0.,0.));
#1459=DIRECTION('',(0.,1.,0.));
#1460=DIRECTION('',(-1.,0.,0.));
#1461=DIRECTION('center_axis',(0.,1.,0.));
#1462=DIRECTION('ref_axis',(0.,0.,1.));
#1463=DIRECTION('',(0.,1.,0.));
#1464=DIRECTION('center_axis',(0.,1.,0.));
#1465=DIRECTION('ref_axis',(0.,0.,1.));
#1466=DIRECTION('center_axis',(0.,1.,0.));
#1467=DIRECTION('ref_axis',(0.,0.,1.));
#1468=DIRECTION('center_axis',(1.38777878078145E-14,0.,-1.));
#1469=DIRECTION('ref_axis',(-1.,0.,-1.38777878078145E-14));
#1470=DIRECTION('',(0.,1.,0.));
#1471=DIRECTION('',(-1.,0.,-1.38777878078145E-14));
#1472=DIRECTION('',(-1.,0.,-1.38777878078145E-14));
#1473=DIRECTION('center_axis',(0.,1.,0.));
#1474=DIRECTION('ref_axis',(0.,0.,1.));
#1475=DIRECTION('center_axis',(0.,1.,0.));
#1476=DIRECTION('ref_axis',(0.,0.,1.));
#1477=DIRECTION('center_axis',(0.,1.,0.));
#1478=DIRECTION('ref_axis',(0.,0.,1.));
#1479=DIRECTION('center_axis',(0.,1.,0.));
#1480=DIRECTION('ref_axis',(0.,0.,1.));
#1481=DIRECTION('center_axis',(0.,1.,0.));
#1482=DIRECTION('ref_axis',(0.,0.,1.));
#1483=DIRECTION('center_axis',(0.,0.,1.));
#1484=DIRECTION('ref_axis',(1.,0.,0.));
#1485=DIRECTION('',(-1.,0.,0.));
#1486=DIRECTION('center_axis',(0.,0.,1.));
#1487=DIRECTION('ref_axis',(1.,0.,0.));
#1488=DIRECTION('center_axis',(-0.707106781186546,-0.707106781186549,0.));
#1489=DIRECTION('ref_axis',(0.,0.,-1.));
#1490=DIRECTION('',(0.577350269189634,-0.577350269189632,0.577350269189612));
#1491=DIRECTION('center_axis',(0.707106781186548,-0.707106781186548,0.));
#1492=DIRECTION('ref_axis',(0.,0.,-1.));
#1493=DIRECTION('',(0.577350269189633,0.577350269189633,-0.577350269189612));
#1494=DIRECTION('',(-0.577350269189626,-0.577350269189626,-0.577350269189626));
#1495=DIRECTION('center_axis',(0.70710678118656,-0.707106781186535,0.));
#1496=DIRECTION('ref_axis',(0.,0.,1.));
#1497=DIRECTION('',(0.577350269189619,0.577350269189639,0.577350269189619));
#1498=DIRECTION('',(0.577350269189619,0.577350269189639,0.577350269189619));
#1499=DIRECTION('',(-0.577350269189606,-0.577350269189626,0.577350269189646));
#1500=DIRECTION('center_axis',(0.,-0.707106781186535,0.70710678118656));
#1501=DIRECTION('ref_axis',(-1.,0.,0.));
#1502=DIRECTION('',(-1.23069611928545E-14,0.70710678118656,0.707106781186535));
#1503=DIRECTION('center_axis',(-0.70710678118656,0.,0.707106781186535));
#1504=DIRECTION('ref_axis',(0.,1.,0.));
#1505=DIRECTION('',(0.707106781186541,0.,0.707106781186554));
#1506=DIRECTION('',(-0.707106781186535,2.77555756156289E-17,-0.70710678118656));
#1507=DIRECTION('center_axis',(0.70710678118656,0.,0.707106781186535));
#1508=DIRECTION('ref_axis',(0.,-1.,0.));
#1509=DIRECTION('',(-0.707106781186529,0.,0.707106781186566));
#1510=DIRECTION('',(0.707106781186535,-2.45455298270058E-14,-0.70710678118656));
#1511=DIRECTION('center_axis',(0.,0.70710678118656,0.707106781186535));
#1512=DIRECTION('ref_axis',(1.,0.,0.));
#1513=DIRECTION('',(0.577350269189632,-0.577350269189612,0.577350269189633));
#1514=DIRECTION('',(1.22792056172388E-14,-0.707106781186535,0.70710678118656));
#1515=DIRECTION('center_axis',(0.577350269189643,0.577350269189613,-0.577350269189622));
#1516=DIRECTION('ref_axis',(-0.707106781186535,0.,-0.70710678118656));
#1517=DIRECTION('',(-0.707106781186541,0.707106781186554,-2.4533077640871E-14));
#1518=DIRECTION('center_axis',(0.577350269189642,0.577350269189633,0.577350269189602));
#1519=DIRECTION('ref_axis',(-0.707106781186541,0.707106781186554,0.));
#1520=DIRECTION('',(0.707106781186541,-0.707106781186554,1.19609907444048E-16));
#1521=DIRECTION('center_axis',(-0.707106781186554,-0.707106781186541,0.));
#1522=DIRECTION('ref_axis',(0.,0.,1.));
#1523=DIRECTION('center_axis',(0.,-0.707106781186535,-0.70710678118656));
#1524=DIRECTION('ref_axis',(-1.,0.,0.));
#1525=DIRECTION('center_axis',(0.,-1.,0.));
#1526=DIRECTION('ref_axis',(0.,0.,-1.));
#1527=DIRECTION('center_axis',(-0.707106781186548,0.,0.707106781186547));
#1528=DIRECTION('ref_axis',(0.,-1.,0.));
#1529=DIRECTION('center_axis',(0.,1.,0.));
#1530=DIRECTION('ref_axis',(0.,0.,1.));
#1531=DIRECTION('',(0.,-0.707106781186548,-0.707106781186548));
#1532=DIRECTION('',(1.22663473334675E-14,0.707106781186547,-0.707106781186547));
#1533=DIRECTION('center_axis',(-9.81307786677362E-15,0.707106781186548,
0.707106781186548));
#1534=DIRECTION('ref_axis',(1.,0.,1.38777878078145E-14));
#1535=DIRECTION('',(0.,0.707106781186547,-0.707106781186547));
#1536=DIRECTION('center_axis',(0.,-0.707106781186548,0.707106781186548));
#1537=DIRECTION('ref_axis',(-1.,0.,0.));
#1538=DIRECTION('',(0.,-0.707106781186548,-0.707106781186548));
#1539=DIRECTION('center_axis',(0.,1.,0.));
#1540=DIRECTION('ref_axis',(0.,0.,1.));
#1541=DIRECTION('center_axis',(0.,-1.,0.));
#1542=DIRECTION('ref_axis',(0.,0.,-1.));
#1543=DIRECTION('center_axis',(0.,0.,-1.));
#1544=DIRECTION('ref_axis',(-1.,0.,0.));
#1545=DIRECTION('center_axis',(0.,0.,-1.));
#1546=DIRECTION('ref_axis',(-1.,0.,0.));
#1547=DIRECTION('center_axis',(0.,0.,1.));
#1548=DIRECTION('ref_axis',(1.,0.,0.));
#1549=DIRECTION('center_axis',(0.,0.,1.));
#1550=DIRECTION('ref_axis',(1.,0.,0.));
#1551=DIRECTION('axis',(0.,0.,1.));
#1552=DIRECTION('refdir',(1.,0.,0.));
#1553=DIRECTION('center_axis',(0.,0.,-1.));
#1554=DIRECTION('ref_axis',(-1.,0.,0.));
#1555=DIRECTION('center_axis',(0.,0.,1.));
#1556=DIRECTION('ref_axis',(1.,0.,0.));
#1557=DIRECTION('',(0.,0.,1.));
#1558=DIRECTION('center_axis',(0.,0.,1.));
#1559=DIRECTION('ref_axis',(1.,0.,0.));
#1560=DIRECTION('center_axis',(0.,0.,-1.));
#1561=DIRECTION('ref_axis',(-1.,0.,0.));
#1562=DIRECTION('center_axis',(0.,0.,1.));
#1563=DIRECTION('ref_axis',(1.,0.,0.));
#1564=DIRECTION('',(0.,0.,1.));
#1565=DIRECTION('center_axis',(0.,0.,1.));
#1566=DIRECTION('ref_axis',(1.,0.,0.));
#1567=DIRECTION('center_axis',(0.,0.,1.));
#1568=DIRECTION('ref_axis',(1.,0.,0.));
#1569=DIRECTION('center_axis',(0.,0.,1.));
#1570=DIRECTION('ref_axis',(1.,0.,0.));
#1571=DIRECTION('center_axis',(0.,0.,1.));
#1572=DIRECTION('ref_axis',(1.,0.,0.));
#1573=DIRECTION('',(-1.,-1.0179494176689E-16,3.42235446449371E-17));
#1574=DIRECTION('',(3.42235446449392E-17,-2.09242927884539E-14,1.));
#1575=DIRECTION('',(-1.,-1.01794941766696E-16,-1.04063603352445E-14));
#1576=DIRECTION('',(1.04061985778947E-14,0.00147747219733203,-0.999998908537357));
#1577=DIRECTION('',(-1.,-3.49433275962222E-17,-3.46756589967439E-15));
#1578=DIRECTION('',(2.79937145353808E-15,-0.598299700415227,-0.801272405916396));
#1579=DIRECTION('',(1.,3.49433275843599E-17,3.46756589967048E-15));
#1580=DIRECTION('',(3.02274979015743E-15,0.481272902046593,-0.876570815026173));
#1581=DIRECTION('',(1.,3.49433275953379E-17,3.46756589967429E-15));
#1582=DIRECTION('',(-1.73720984907799E-15,0.870472897391857,0.492216349694141));
#1583=CARTESIAN_POINT('',(0.,0.,0.));
#1584=CARTESIAN_POINT('',(0.,0.,0.));
#1585=CARTESIAN_POINT('Origin',(13.5,28.5,-41.45));
#1586=CARTESIAN_POINT('',(13.5,28.5,-43.15));
#1587=CARTESIAN_POINT('',(13.5,28.5,-39.75));
#1588=CARTESIAN_POINT('Origin',(13.5,28.5,-41.45));
#1589=CARTESIAN_POINT('',(13.5,47.5,-39.75));
#1590=CARTESIAN_POINT('',(13.5,28.5,-39.75));
#1591=CARTESIAN_POINT('',(13.5,47.5,-43.15));
#1592=CARTESIAN_POINT('Origin',(13.5,47.5,-41.45));
#1593=CARTESIAN_POINT('',(13.5,28.5,-43.15));
#1594=CARTESIAN_POINT('Origin',(13.,28.5,-43.15));
#1595=CARTESIAN_POINT('',(13.,28.5,-43.15));
#1596=CARTESIAN_POINT('',(13.5,28.5,-43.15));
#1597=CARTESIAN_POINT('',(13.,47.5,-43.15));
#1598=CARTESIAN_POINT('',(13.5,47.5,-43.15));
#1599=CARTESIAN_POINT('',(13.,28.5,-43.15));
#1600=CARTESIAN_POINT('Origin',(13.,28.5,-41.45));
#1601=CARTESIAN_POINT('',(13.,28.5,-39.75));
#1602=CARTESIAN_POINT('Origin',(13.,28.5,-41.45));
#1603=CARTESIAN_POINT('',(13.,47.5,-39.75));
#1604=CARTESIAN_POINT('Origin',(13.,47.5,-41.45));
#1605=CARTESIAN_POINT('',(13.,28.5,-39.75));
#1606=CARTESIAN_POINT('Origin',(13.5,28.5,-39.75));
#1607=CARTESIAN_POINT('',(0.,28.5,-39.75));
#1608=CARTESIAN_POINT('',(0.,47.5,-39.75));
#1609=CARTESIAN_POINT('Origin',(2.75,28.5,-41.45));
#1610=CARTESIAN_POINT('',(2.75,47.5,-43.15));
#1611=CARTESIAN_POINT('Origin',(2.75,47.5,-41.45));
#1612=CARTESIAN_POINT('',(2.75,28.5,-43.15));
#1613=CARTESIAN_POINT('',(2.75,28.5,-43.15));
#1614=CARTESIAN_POINT('Origin',(2.75,28.5,-41.45));
#1615=CARTESIAN_POINT('Origin',(8.,28.5,-41.45));
#1616=CARTESIAN_POINT('',(8.,47.5,-43.475));
#1617=CARTESIAN_POINT('Origin',(8.,47.5,-41.45));
#1618=CARTESIAN_POINT('',(8.,28.5,-43.475));
#1619=CARTESIAN_POINT('',(8.,28.5,-43.475));
#1620=CARTESIAN_POINT('Origin',(8.,28.5,-41.45));
#1621=CARTESIAN_POINT('Origin',(0.200000000000006,28.5,-49.75));
#1622=CARTESIAN_POINT('',(0.200000000000006,28.5,-49.75));
#1623=CARTESIAN_POINT('',(0.200000000000006,28.5,-33.65));
#1624=CARTESIAN_POINT('',(0.200000000000006,28.5,-42.));
#1625=CARTESIAN_POINT('',(0.200000000000006,47.5,-33.65));
#1626=CARTESIAN_POINT('',(0.200000000000006,28.5,-33.65));
#1627=CARTESIAN_POINT('',(0.200000000000006,47.5,-49.75));
#1628=CARTESIAN_POINT('',(0.200000000000006,47.5,-42.));
#1629=CARTESIAN_POINT('',(0.200000000000006,28.5,-49.75));
#1630=CARTESIAN_POINT('Origin',(15.8,28.5,-49.75));
#1631=CARTESIAN_POINT('',(15.8,28.5,-49.75));
#1632=CARTESIAN_POINT('',(0.,28.5,-49.75));
#1633=CARTESIAN_POINT('',(15.8,47.5,-49.75));
#1634=CARTESIAN_POINT('',(0.,47.5,-49.75));
#1635=CARTESIAN_POINT('',(15.8,28.5,-49.75));
#1636=CARTESIAN_POINT('Origin',(15.8,28.5,-33.85));
#1637=CARTESIAN_POINT('',(15.8,28.5,-33.85));
#1638=CARTESIAN_POINT('',(15.8,28.5,-42.));
#1639=CARTESIAN_POINT('',(15.8,47.5,-33.85));
#1640=CARTESIAN_POINT('',(15.8,47.5,-42.));
#1641=CARTESIAN_POINT('',(15.8,28.5,-33.85));
#1642=CARTESIAN_POINT('Origin',(15.6,28.5,-33.65));
#1643=CARTESIAN_POINT('',(15.6,28.5,-33.65));
#1644=CARTESIAN_POINT('',(15.9,28.5,-33.95));
#1645=CARTESIAN_POINT('',(15.6,47.5,-33.65));
#1646=CARTESIAN_POINT('',(15.9,47.5,-33.95));
#1647=CARTESIAN_POINT('',(15.6,28.5,-33.65));
#1648=CARTESIAN_POINT('Origin',(0.200000000000007,28.5,-33.65));
#1649=CARTESIAN_POINT('',(16.5,28.5,-33.65));
#1650=CARTESIAN_POINT('',(16.5,47.5,-33.65));
#1651=CARTESIAN_POINT('Origin',(0.,47.5,-42.));
#1652=CARTESIAN_POINT('Origin',(1.8,11.4,-47.65));
#1653=CARTESIAN_POINT('',(2.6,11.4,-45.4957569836722));
#1654=CARTESIAN_POINT('Origin',(1.8,11.4,-45.4957569836722));
#1655=CARTESIAN_POINT('',(2.6,11.4,-47.425));
#1656=CARTESIAN_POINT('',(2.6,11.4,-47.65));
#1657=CARTESIAN_POINT('Origin',(1.8,11.4,-47.425));
#1658=CARTESIAN_POINT('Origin',(1.8,17.4,-47.65));
#1659=CARTESIAN_POINT('',(2.6,17.4,-45.4957569836722));
#1660=CARTESIAN_POINT('Origin',(1.8,17.4,-45.4957569836722));
#1661=CARTESIAN_POINT('',(2.6,17.4,-47.425));
#1662=CARTESIAN_POINT('',(2.6,17.4,-47.65));
#1663=CARTESIAN_POINT('Origin',(1.8,17.4,-47.425));
#1664=CARTESIAN_POINT('Origin',(1.8,11.4,1.55));
#1665=CARTESIAN_POINT('',(1.,11.4,0.));
#1666=CARTESIAN_POINT('Origin',(1.8,11.4,0.));
#1667=CARTESIAN_POINT('',(1.,11.4,1.325));
#1668=CARTESIAN_POINT('',(1.,11.4,1.55));
#1669=CARTESIAN_POINT('Origin',(1.8,11.4,1.325));
#1670=CARTESIAN_POINT('Origin',(1.8,17.4,1.55));
#1671=CARTESIAN_POINT('',(1.,17.4,0.));
#1672=CARTESIAN_POINT('Origin',(1.8,17.4,0.));
#1673=CARTESIAN_POINT('',(1.,17.4,1.325));
#1674=CARTESIAN_POINT('',(1.,17.4,1.55));
#1675=CARTESIAN_POINT('Origin',(1.8,17.4,1.325));
#1676=CARTESIAN_POINT('Origin',(8.,28.5,-41.45));
#1677=CARTESIAN_POINT('',(8.,28.125,-43.1));
#1678=CARTESIAN_POINT('Origin',(8.,28.125,-41.45));
#1679=CARTESIAN_POINT('',(8.,28.5,-43.475));
#1680=CARTESIAN_POINT('Origin',(8.,28.5,-41.45));
#1681=CARTESIAN_POINT('',(8.,23.5,-43.1));
#1682=CARTESIAN_POINT('Origin',(8.,23.5,-41.45));
#1683=CARTESIAN_POINT('',(8.,28.5,-43.1));
#1684=CARTESIAN_POINT('Origin',(2.75,28.3,-41.45));
#1685=CARTESIAN_POINT('',(2.75,28.3,-42.95));
#1686=CARTESIAN_POINT('Origin',(2.75,28.3,-41.45));
#1687=CARTESIAN_POINT('',(2.75,28.3,-42.95));
#1688=CARTESIAN_POINT('Origin',(1.8,17.4,-47.65));
#1689=CARTESIAN_POINT('',(2.825,17.4,-47.65));
#1690=CARTESIAN_POINT('',(2.825,17.4,-47.65));
#1691=CARTESIAN_POINT('Origin',(1.8,17.4,-47.65));
#1692=CARTESIAN_POINT('Origin',(1.8,11.4,-47.65));
#1693=CARTESIAN_POINT('',(2.825,11.4,-47.65));
#1694=CARTESIAN_POINT('',(2.825,11.4,-47.65));
#1695=CARTESIAN_POINT('Origin',(1.8,11.4,-47.65));
#1696=CARTESIAN_POINT('Origin',(1.8,17.4,1.55));
#1697=CARTESIAN_POINT('',(0.775000000000001,17.4,1.55));
#1698=CARTESIAN_POINT('',(0.775000000000001,17.4,1.55));
#1699=CARTESIAN_POINT('Origin',(1.8,17.4,1.55));
#1700=CARTESIAN_POINT('Origin',(1.8,11.4,1.55));
#1701=CARTESIAN_POINT('',(0.775000000000001,11.4,1.55));
#1702=CARTESIAN_POINT('',(0.775000000000001,11.4,1.55));
#1703=CARTESIAN_POINT('Origin',(1.8,11.4,1.55));
#1704=CARTESIAN_POINT('Origin',(2.75,25.3,-41.45));
#1705=CARTESIAN_POINT('',(2.75,25.3,-42.95));
#1706=CARTESIAN_POINT('Origin',(2.75,25.3,-41.45));
#1707=CARTESIAN_POINT('',(2.75,25.3,-42.95));
#1708=CARTESIAN_POINT('Origin',(6.,0.,-42.));
#1709=CARTESIAN_POINT('',(6.,7.,-47.65));
#1710=CARTESIAN_POINT('',(6.,7.,1.55));
#1711=CARTESIAN_POINT('',(6.,7.,-42.));
#1712=CARTESIAN_POINT('',(6.,21.,-47.65));
#1713=CARTESIAN_POINT('',(6.,22.,-47.65));
#1714=CARTESIAN_POINT('',(6.,21.,1.55));
#1715=CARTESIAN_POINT('',(6.,21.,3.95));
#1716=CARTESIAN_POINT('',(6.,7.,1.55));
#1717=CARTESIAN_POINT('Origin',(0.,13.,-42.));
#1718=CARTESIAN_POINT('',(0.,28.3,-49.75));
#1719=CARTESIAN_POINT('',(0.,21.,-49.75));
#1720=CARTESIAN_POINT('',(0.,13.,-49.75));
#1721=CARTESIAN_POINT('',(-3.46944695195362E-15,21.,-47.65));
#1722=CARTESIAN_POINT('',(-3.46944695195361E-15,21.,-41.0288218571013));
#1723=CARTESIAN_POINT('',(0.,7.,-47.65));
#1724=CARTESIAN_POINT('',(0.,7.,-47.65));
#1725=CARTESIAN_POINT('',(0.,7.,1.55));
#1726=CARTESIAN_POINT('',(0.,7.,0.));
#1727=CARTESIAN_POINT('',(-3.46944695195361E-15,21.,1.55));
#1728=CARTESIAN_POINT('',(-3.42247070086406E-17,22.,1.55));
#1729=CARTESIAN_POINT('',(-3.46944695195361E-15,21.,3.85));
#1730=CARTESIAN_POINT('',(-3.46944695195361E-15,21.,2.55));
#1731=CARTESIAN_POINT('',(-3.43270754797919E-15,21.8,3.85));
#1732=CARTESIAN_POINT('',(0.,23.,3.85));
#1733=CARTESIAN_POINT('',(0.,21.8,-33.65));
#1734=CARTESIAN_POINT('',(0.,21.8,-42.));
#1735=CARTESIAN_POINT('',(0.,28.3,-33.65));
#1736=CARTESIAN_POINT('',(0.,28.3,-33.65));
#1737=CARTESIAN_POINT('',(0.,28.3,-42.));
#1738=CARTESIAN_POINT('Origin',(0.,0.,-49.95));
#1739=CARTESIAN_POINT('',(7.8,21.,-49.95));
#1740=CARTESIAN_POINT('',(0.199999999999992,21.,-49.95));
#1741=CARTESIAN_POINT('',(6.,21.,-49.95));
#1742=CARTESIAN_POINT('',(0.199999999999992,28.3,-49.95));
#1743=CARTESIAN_POINT('',(0.199999999999992,0.,-49.95));
#1744=CARTESIAN_POINT('',(15.8,28.3,-49.95));
#1745=CARTESIAN_POINT('',(0.,28.3,-49.95));
#1746=CARTESIAN_POINT('',(15.8,22.5,-49.95));
#1747=CARTESIAN_POINT('',(15.8,0.,-49.95));
#1748=CARTESIAN_POINT('',(7.8,22.5,-49.95));
#1749=CARTESIAN_POINT('',(7.8,22.5,-49.95));
#1750=CARTESIAN_POINT('',(7.8,23.5,-49.95));
#1751=CARTESIAN_POINT('Origin',(0.,13.,-49.75));
#1752=CARTESIAN_POINT('',(0.,21.,-49.75));
#1753=CARTESIAN_POINT('',(0.0999999999999956,28.4,-49.85));
#1754=CARTESIAN_POINT('',(-2.48333333333327,25.8166666666666,-47.2666666666667));
#1755=CARTESIAN_POINT('',(0.,28.5,-49.75));
#1756=CARTESIAN_POINT('Origin',(-3.46944695195361E-15,21.,2.55));
#1757=CARTESIAN_POINT('',(6.,21.,-47.65));
#1758=CARTESIAN_POINT('',(7.8,21.,3.85));
#1759=CARTESIAN_POINT('',(7.8,21.,-50.05));
#1760=CARTESIAN_POINT('',(-3.46944695195361E-15,21.,3.85));
#1761=CARTESIAN_POINT('',(6.,21.,1.55));
#1762=CARTESIAN_POINT('Origin',(7.8,23.5,0.));
#1763=CARTESIAN_POINT('',(7.8,22.5,-33.45));
#1764=CARTESIAN_POINT('',(7.8,22.5,-28.6));
#1765=CARTESIAN_POINT('',(7.8,21.8,-33.45));
#1766=CARTESIAN_POINT('',(7.8,22.5,-33.45));
#1767=CARTESIAN_POINT('',(7.8,21.8,3.85));
#1768=CARTESIAN_POINT('',(7.8,21.8,0.));
#1769=CARTESIAN_POINT('',(7.8,23.,3.85));
#1770=CARTESIAN_POINT('Origin',(0.,0.,-47.65));
#1771=CARTESIAN_POINT('',(6.,7.,-47.65));
#1772=CARTESIAN_POINT('Origin',(0.,7.,0.));
#1773=CARTESIAN_POINT('',(0.,7.,1.55));
#1774=CARTESIAN_POINT('Origin',(-1.5,22.,0.));
#1775=CARTESIAN_POINT('',(0.200000000000006,22.,-33.45));
#1776=CARTESIAN_POINT('',(0.200000000000013,22.,3.65));
#1777=CARTESIAN_POINT('',(0.200000000000013,22.,0.));
#1778=CARTESIAN_POINT('',(7.59999999999999,22.,3.65));
#1779=CARTESIAN_POINT('',(-1.5,22.,3.65));
#1780=CARTESIAN_POINT('',(7.59999999999999,22.,-33.45));
#1781=CARTESIAN_POINT('',(7.59999999999999,22.,0.));
#1782=CARTESIAN_POINT('',(7.8,22.,-33.45));
#1783=CARTESIAN_POINT('Origin',(16.,23.5,-42.));
#1784=CARTESIAN_POINT('',(16.,28.3,-33.85));
#1785=CARTESIAN_POINT('',(16.,22.5,-33.85));
#1786=CARTESIAN_POINT('',(16.,23.5,-33.85));
#1787=CARTESIAN_POINT('',(16.,22.5,-49.75));
#1788=CARTESIAN_POINT('',(16.,22.5,-49.85));
#1789=CARTESIAN_POINT('',(16.,28.3,-49.75));
#1790=CARTESIAN_POINT('',(16.,23.5,-49.75));
#1791=CARTESIAN_POINT('',(16.,28.3,-42.));
#1792=CARTESIAN_POINT('Origin',(0.,23.,-33.45));
#1793=CARTESIAN_POINT('',(15.6,28.3,-33.45));
#1794=CARTESIAN_POINT('',(0.199999999999999,28.3,-33.45));
#1795=CARTESIAN_POINT('',(0.,28.3,-33.45));
#1796=CARTESIAN_POINT('',(0.199999999999999,21.8,-33.45));
#1797=CARTESIAN_POINT('',(3.79999999999998,25.8,-33.45));
#1798=CARTESIAN_POINT('',(15.6,22.5,-33.45));
#1799=CARTESIAN_POINT('',(15.8,22.5,-33.45));
#1800=CARTESIAN_POINT('',(15.6,23.,-33.45));
#1801=CARTESIAN_POINT('Origin',(13.5,25.3,-39.95));
#1802=CARTESIAN_POINT('',(13.,25.3,-39.95));
#1803=CARTESIAN_POINT('',(13.,28.3,-39.95));
#1804=CARTESIAN_POINT('',(13.,25.3,-39.95));
#1805=CARTESIAN_POINT('',(13.5,28.3,-39.95));
#1806=CARTESIAN_POINT('',(13.5,28.3,-39.95));
#1807=CARTESIAN_POINT('',(13.5,25.3,-39.95));
#1808=CARTESIAN_POINT('',(13.5,25.3,-39.95));
#1809=CARTESIAN_POINT('',(13.5,25.3,-39.95));
#1810=CARTESIAN_POINT('Origin',(13.,25.3,-41.45));
#1811=CARTESIAN_POINT('',(13.,25.3,-42.95));
#1812=CARTESIAN_POINT('',(13.,28.3,-42.95));
#1813=CARTESIAN_POINT('',(13.,25.3,-42.95));
#1814=CARTESIAN_POINT('Origin',(13.,28.3,-41.45));
#1815=CARTESIAN_POINT('Origin',(13.,25.3,-41.45));
#1816=CARTESIAN_POINT('Origin',(13.5,25.3,-42.95));
#1817=CARTESIAN_POINT('',(13.5,25.3,-42.95));
#1818=CARTESIAN_POINT('',(13.5,28.3,-42.95));
#1819=CARTESIAN_POINT('',(13.5,25.3,-42.95));
#1820=CARTESIAN_POINT('',(13.,28.3,-42.95));
#1821=CARTESIAN_POINT('',(13.5,25.3,-42.95));
#1822=CARTESIAN_POINT('Origin',(13.5,25.3,-41.45));
#1823=CARTESIAN_POINT('Origin',(13.5,28.3,-41.45));
#1824=CARTESIAN_POINT('Origin',(13.5,25.3,-41.45));
#1825=CARTESIAN_POINT('Origin',(0.,25.3,-5.95));
#1826=CARTESIAN_POINT('Origin',(2.75,25.3,-41.45));
#1827=CARTESIAN_POINT('Origin',(0.,0.,3.85));
#1828=CARTESIAN_POINT('',(0.,21.8,3.85));
#1829=CARTESIAN_POINT('Origin',(0.,0.,1.55));
#1830=CARTESIAN_POINT('Origin',(7.59999999999999,22.,0.));
#1831=CARTESIAN_POINT('',(6.31666666666668,23.2833333333333,2.36666666666673));
#1832=CARTESIAN_POINT('Origin',(0.,21.8,-42.));
#1833=CARTESIAN_POINT('',(15.3499999999998,37.1499999999998,-11.4999999999993));
#1834=CARTESIAN_POINT('',(-2.93333333333333,18.8666666666667,-36.5833333333333));
#1835=CARTESIAN_POINT('Origin',(0.200000000000006,28.5,-42.));
#1836=CARTESIAN_POINT('',(0.133333333333339,28.4333333333333,-49.8166666666667));
#1837=CARTESIAN_POINT('',(0.0999999999999959,28.4,-33.55));
#1838=CARTESIAN_POINT('',(-2.58333333333326,25.7166666666666,-36.2333333333333));
#1839=CARTESIAN_POINT('',(0.,28.3,-33.45));
#1840=CARTESIAN_POINT('Origin',(0.,28.5,-49.75));
#1841=CARTESIAN_POINT('',(15.8,28.5,-49.75));
#1842=CARTESIAN_POINT('Origin',(16.,23.5,-49.75));
#1843=CARTESIAN_POINT('',(15.8,22.5,-49.95));
#1844=CARTESIAN_POINT('',(15.9,28.3,-49.85));
#1845=CARTESIAN_POINT('Origin',(15.8,23.,-33.65));
#1846=CARTESIAN_POINT('',(16.,22.5,-33.85));
#1847=CARTESIAN_POINT('',(16.,28.3,-33.85));
#1848=CARTESIAN_POINT('Origin',(0.,28.3,-33.45));
#1849=CARTESIAN_POINT('',(0.133333333333331,28.3666666666667,-33.5166666666667));
#1850=CARTESIAN_POINT('',(15.6,28.5,-33.65));
#1851=CARTESIAN_POINT('Origin',(15.8,28.5,-49.75));
#1852=CARTESIAN_POINT('',(15.8,28.5,-49.75));
#1853=CARTESIAN_POINT('Origin',(16.,28.3,-33.85));
#1854=CARTESIAN_POINT('',(16.,28.3,-33.85));
#1855=CARTESIAN_POINT('Origin',(16.,28.3,-42.));
#1856=CARTESIAN_POINT('Origin',(0.,21.8,3.85));
#1857=CARTESIAN_POINT('Origin',(0.,22.5,0.));
#1858=CARTESIAN_POINT('Origin',(0.,13.,-33.65));
#1859=CARTESIAN_POINT('Origin',(13.5,28.3,-41.45));
#1860=CARTESIAN_POINT('',(13.5,28.5,-39.75));
#1861=CARTESIAN_POINT('',(13.5,28.3,-42.95));
#1862=CARTESIAN_POINT('Origin',(13.5,28.3,-42.95));
#1863=CARTESIAN_POINT('',(13.,28.3,-42.95));
#1864=CARTESIAN_POINT('Origin',(0.,28.5,-39.75));
#1865=CARTESIAN_POINT('',(13.,28.5,-39.75));
#1866=CARTESIAN_POINT('Origin',(13.,28.3,-41.45));
#1867=CARTESIAN_POINT('Origin',(8.,23.5,-41.45));
#1868=CARTESIAN_POINT('Origin',(-46.7428227385338,19.0250908643533,-45.4957569836722));
#1869=CARTESIAN_POINT('Origin',(-46.7428227385338,19.0250908643533,-45.4957569836722));
#1870=CARTESIAN_POINT('Origin',(-46.7428227385338,19.0250908643533,0.));
#1871=CARTESIAN_POINT('Origin',(-46.7428227385338,19.0250908643533,0.));
#1872=CARTESIAN_POINT('',(0.,0.,0.));
#1873=CARTESIAN_POINT('Origin',(0.,0.,2.5));
#1874=CARTESIAN_POINT('',(1.,-1.22464679914735E-16,0.5));
#1875=CARTESIAN_POINT('Origin',(0.,0.,0.5));
#1876=CARTESIAN_POINT('',(1.,-1.22464679914735E-16,2.5));
#1877=CARTESIAN_POINT('',(1.,-1.22464679914735E-16,2.5));
#1878=CARTESIAN_POINT('Origin',(0.,0.,2.5));
#1879=CARTESIAN_POINT('Origin',(0.,0.,0.5));
#1880=CARTESIAN_POINT('',(2.5,-3.06161699786838E-16,0.));
#1881=CARTESIAN_POINT('Origin',(0.,0.,0.));
#1882=CARTESIAN_POINT('',(2.5,-3.06161699786838E-16,0.5));
#1883=CARTESIAN_POINT('',(2.5,-3.06161699786838E-16,0.5));
#1884=CARTESIAN_POINT('Origin',(0.,0.,0.5));
#1885=CARTESIAN_POINT('Origin',(0.,0.,0.5));
#1886=CARTESIAN_POINT('Origin',(0.,0.,0.));
#1887=CARTESIAN_POINT('Origin',(0.,0.,2.5));
#1888=CARTESIAN_POINT('',(-13.050000000066,37.5154834118416,-333.659427639534));
#1889=CARTESIAN_POINT('',(35.0999999999374,54.9154834118361,-331.859427639534));
#1890=CARTESIAN_POINT('',(35.0999999999352,48.9154834118394,-331.859427639534));
#1891=CARTESIAN_POINT('',(-15.1000000000649,54.9154834118397,-331.859427639534));
#1892=CARTESIAN_POINT('',(-15.1000000000649,48.9154834118397,-331.859427639534));
#1893=UNCERTAINTY_MEASURE_WITH_UNIT(LENGTH_MEASURE(0.01),#1901,
'DISTANCE_ACCURACY_VALUE',
'Maximum model space distance between geometric entities at asserted c
onnectivities');
#1894=UNCERTAINTY_MEASURE_WITH_UNIT(LENGTH_MEASURE(0.01),#1901,
'DISTANCE_ACCURACY_VALUE',
'Maximum model space distance between geometric entities at asserted c
onnectivities');
#1895=UNCERTAINTY_MEASURE_WITH_UNIT(LENGTH_MEASURE(0.01),#1901,
'DISTANCE_ACCURACY_VALUE',
'Maximum model space distance between geometric entities at asserted c
onnectivities');
#1896=UNCERTAINTY_MEASURE_WITH_UNIT(LENGTH_MEASURE(0.01),#1901,
'DISTANCE_ACCURACY_VALUE',
'Maximum model space distance between geometric entities at asserted c
onnectivities');
#1897=(
GEOMETRIC_REPRESENTATION_CONTEXT(3)
GLOBAL_UNCERTAINTY_ASSIGNED_CONTEXT((#1893))
GLOBAL_UNIT_ASSIGNED_CONTEXT((#1901,#1903,#1904))
REPRESENTATION_CONTEXT('','3D')
);
#1898=(
GEOMETRIC_REPRESENTATION_CONTEXT(3)
GLOBAL_UNCERTAINTY_ASSIGNED_CONTEXT((#1894))
GLOBAL_UNIT_ASSIGNED_CONTEXT((#1901,#1903,#1904))
REPRESENTATION_CONTEXT('','3D')
);
#1899=(
GEOMETRIC_REPRESENTATION_CONTEXT(3)
GLOBAL_UNCERTAINTY_ASSIGNED_CONTEXT((#1895))
GLOBAL_UNIT_ASSIGNED_CONTEXT((#1901,#1903,#1904))
REPRESENTATION_CONTEXT('','3D')
);
#1900=(
GEOMETRIC_REPRESENTATION_CONTEXT(3)
GLOBAL_UNCERTAINTY_ASSIGNED_CONTEXT((#1896))
GLOBAL_UNIT_ASSIGNED_CONTEXT((#1901,#1903,#1904))
REPRESENTATION_CONTEXT('','3D')
);
#1901=(
LENGTH_UNIT()
NAMED_UNIT(*)
SI_UNIT(.MILLI.,.METRE.)
);
#1902=(
LENGTH_UNIT()
NAMED_UNIT(*)
SI_UNIT($,.METRE.)
);
#1903=(
NAMED_UNIT(*)
PLANE_ANGLE_UNIT()
SI_UNIT($,.RADIAN.)
);
#1904=(
NAMED_UNIT(*)
SI_UNIT($,.STERADIAN.)
SOLID_ANGLE_UNIT()
);
#1905=SHAPE_DEFINITION_REPRESENTATION(#1908,#1916);
#1906=SHAPE_DEFINITION_REPRESENTATION(#1909,#1917);
#1907=SHAPE_DEFINITION_REPRESENTATION(#1910,#1918);
#1908=PRODUCT_DEFINITION_SHAPE('',$,#1920);
#1909=PRODUCT_DEFINITION_SHAPE('',$,#1921);
#1910=PRODUCT_DEFINITION_SHAPE('',$,#1922);
#1911=PRODUCT_DEFINITION_SHAPE($,$,#26);
#1912=PRODUCT_DEFINITION_SHAPE($,$,#27);
#1913=PRODUCT_DEFINITION_SHAPE($,$,#28);
#1914=PRODUCT_DEFINITION_SHAPE($,$,#29);
#1915=PRODUCT_DEFINITION_SHAPE($,$,#30);
#1916=SHAPE_REPRESENTATION('',(#1140,#1245,#1246,#1247,#1248,#1249),#1897);
#1917=SHAPE_REPRESENTATION('',(#1141),#1898);
#1918=SHAPE_REPRESENTATION('',(#1235),#1899);
#1919=PRODUCT_DEFINITION_CONTEXT('part definition',#1930,'design');
#1920=PRODUCT_DEFINITION('2026-04-03-17-40-38-294','finger_left',#1923,
#1919);
#1921=PRODUCT_DEFINITION('2026-04-03-17-40-38-294_1',
'\X\B8\X\B4\X\BC\X\FE \X\B8\X\B4\X\BC\X\FE \X\B8\X\B4\X\BC\X\FE PGE-50
\X\D0\X\C2\X\BB\X\F9\X\D7\X\F90.5\X\C4\X\A3\X\CA\X\FD^\X\D7\X\F3\X\BB\X\F9
\X\D7\X\F9_PGEA-100-40-W-\X\D0\X\E9\X\C4\X\E2\X\D7\X\E9\X\BC\X\FE',#1924,
#1919);
#1922=PRODUCT_DEFINITION('2026-04-03-17-40-38-294_2',
'\X\B8\X\B4\X\BC\X\FE \X\B8\X\B4\X\BC\X\FE \X\B8\X\B4\X\BC\X\FE M2-2-5
\X\CD\X\B7-0.5\X\BA\X\F1^\X\D7\X\F3\X\BB\X\F9\X\D7\X\F9_PGEA-100-40-W-
\X\D0\X\E9\X\C4\X\E2\X\D7\X\E9\X\BC\X\FE',#1925,#1919);
#1923=PRODUCT_DEFINITION_FORMATION('',$,#1932);
#1924=PRODUCT_DEFINITION_FORMATION('',$,#1933);
#1925=PRODUCT_DEFINITION_FORMATION('',$,#1934);
#1926=PRODUCT_RELATED_PRODUCT_CATEGORY('finger_left','finger_left',(#1932));
#1927=PRODUCT_RELATED_PRODUCT_CATEGORY(
'\X\B8\X\B4\X\BC\X\FE \X\B8\X\B4\X\BC\X\FE \X\B8\X\B4\X\BC\X\FE PGE-50
\X\D0\X\C2\X\BB\X\F9\X\D7\X\F90.5\X\C4\X\A3\X\CA\X\FD^\X\D7\X\F3\X\BB\X\F9
\X\D7\X\F9_PGEA-100-40-W-\X\D0\X\E9\X\C4\X\E2\X\D7\X\E9\X\BC\X\FE',
'\X\B8\X\B4\X\BC\X\FE \X\B8\X\B4\X\BC\X\FE \X\B8\X\B4\X\BC\X\FE PGE-50
\X\D0\X\C2\X\BB\X\F9\X\D7\X\F90.5\X\C4\X\A3\X\CA\X\FD^\X\D7\X\F3\X\BB\X\F9
\X\D7\X\F9_PGEA-100-40-W-\X\D0\X\E9\X\C4\X\E2\X\D7\X\E9\X\BC\X\FE',(#1933));
#1928=PRODUCT_RELATED_PRODUCT_CATEGORY(
'\X\B8\X\B4\X\BC\X\FE \X\B8\X\B4\X\BC\X\FE \X\B8\X\B4\X\BC\X\FE M2-2-5
\X\CD\X\B7-0.5\X\BA\X\F1^\X\D7\X\F3\X\BB\X\F9\X\D7\X\F9_PGEA-100-40-W-
\X\D0\X\E9\X\C4\X\E2\X\D7\X\E9\X\BC\X\FE',
'\X\B8\X\B4\X\BC\X\FE \X\B8\X\B4\X\BC\X\FE \X\B8\X\B4\X\BC\X\FE M2-2-5
\X\CD\X\B7-0.5\X\BA\X\F1^\X\D7\X\F3\X\BB\X\F9\X\D7\X\F9_PGEA-100-40-W-
\X\D0\X\E9\X\C4\X\E2\X\D7\X\E9\X\BC\X\FE',(#1934));
#1929=APPLICATION_PROTOCOL_DEFINITION('international standard',
'automotive_design',2009,#1930);
#1930=APPLICATION_CONTEXT(
'Core Data for Automotive Mechanical Design Process');
#1931=PRODUCT_CONTEXT('part definition',#1930,'mechanical');
#1932=PRODUCT('2026-04-03-17-40-38-294','finger_left',$,(#1931));
#1933=PRODUCT('2026-04-03-17-40-38-294_1',
'\X\B8\X\B4\X\BC\X\FE \X\B8\X\B4\X\BC\X\FE \X\B8\X\B4\X\BC\X\FE PGE-50
\X\D0\X\C2\X\BB\X\F9\X\D7\X\F90.5\X\C4\X\A3\X\CA\X\FD^\X\D7\X\F3\X\BB\X\F9
\X\D7\X\F9_PGEA-100-40-W-\X\D0\X\E9\X\C4\X\E2\X\D7\X\E9\X\BC\X\FE',$,(#1931));
#1934=PRODUCT('2026-04-03-17-40-38-294_2',
'\X\B8\X\B4\X\BC\X\FE \X\B8\X\B4\X\BC\X\FE \X\B8\X\B4\X\BC\X\FE M2-2-5
\X\CD\X\B7-0.5\X\BA\X\F1^\X\D7\X\F3\X\BB\X\F9\X\D7\X\F9_PGEA-100-40-W-
\X\D0\X\E9\X\C4\X\E2\X\D7\X\E9\X\BC\X\FE',$,(#1931));
#1935=PRESENTATION_STYLE_ASSIGNMENT((#1936));
#1936=SURFACE_STYLE_USAGE(.BOTH.,#1937);
#1937=SURFACE_SIDE_STYLE('',(#1938));
#1938=SURFACE_STYLE_FILL_AREA(#1939);
#1939=FILL_AREA_STYLE('\X2\AC15CCA0\X0\ - \X2\C0C8D2F4\X0\',(#1940));
#1940=FILL_AREA_STYLE_COLOUR('\X2\AC15CCA0\X0\ - \X2\C0C8D2F4\X0\',#1941);
#1941=COLOUR_RGB('\X2\AC15CCA0\X0\ - \X2\C0C8D2F4\X0\',0.627450980392157,
0.627450980392157,0.627450980392157);
ENDSEC;
END-ISO-10303-21;
